<svg width="32" height="39" viewBox="0 0 32 39" fill="none" xmlns="http://www.w3.org/2000/svg">
<rect x="0.5" y="7.5" width="31" height="31" rx="6.5" fill="#F1F1F1" stroke="#C4C4C4" stroke-dasharray="3 3"/>
<path d="M16 1L16 16M16 16L20.5 10.375M16 16L11.5 10.375" stroke="#7ACFFF" stroke-width="2" stroke-linecap="round" stroke-linejoin="round"/>
<path opacity="0.5" d="M12.558 32C11.5789 32 10.7411 31.6666 10.0447 30.9997C9.34822 30.3327 9 29.5176 9 28.5544C9 27.7287 9.24762 26.9929 9.74285 26.3471C10.238 25.7014 10.8894 25.2888 11.6971 25.1092C11.8844 24.3744 12.3302 23.6725 13.0345 23.0035C13.7388 22.3345 14.4937 22 15.2994 22C15.671 22 15.99 22.1274 16.2563 22.3823C16.5226 22.6373 16.6557 22.9454 16.6557 23.3065V27.0247L17.6271 26.0915L18.5444 26.995L16 29.5012L13.4556 26.995L14.3729 26.0915L15.3443 27.0247V23.3618C14.5765 23.5203 13.9817 23.9004 13.5598 24.5019C13.1379 25.1033 12.927 25.7264 12.927 26.3712H12.5692C11.9767 26.3712 11.471 26.5775 11.0521 26.9901C10.6332 27.4026 10.4238 27.9008 10.4238 28.4844C10.4238 29.0704 10.6321 29.5692 11.0488 29.9806C11.4655 30.392 11.9685 30.5976 12.558 30.5976H20.0679C20.4885 30.5976 20.8451 30.4536 21.1375 30.1655C21.43 29.8774 21.5763 29.5225 21.5763 29.1008C21.5763 28.684 21.43 28.3304 21.1375 28.0398C20.8451 27.7493 20.4848 27.604 20.0566 27.604H19.0992V26.338C19.0992 25.8571 18.9907 25.4121 18.7737 25.003C18.5567 24.5938 18.2679 24.2403 17.9074 23.9423V22.3286C18.6892 22.6881 19.31 23.221 19.7698 23.9272C20.2295 24.6334 20.4693 25.4076 20.4892 26.2496C21.2164 26.3588 21.8167 26.6847 22.29 27.2272C22.7633 27.7699 23 28.4018 23 29.1229C23 29.9221 22.7149 30.6014 22.1448 31.1609C21.5747 31.7203 20.8824 32 20.0679 32H12.558Z" fill="#C3C3C3"/>
</svg>
