<svg width="10" height="10" viewBox="0 0 10 10" fill="none" xmlns="http://www.w3.org/2000/svg">
<mask id="mask0_1032_490" style="mask-type:alpha" maskUnits="userSpaceOnUse" x="0" y="0" width="10" height="10">
<rect x="0.506836" y="0.506836" width="9.49316" height="9.49316" fill="#616161"/>
</mask>
<g mask="url(#mask0_1032_490)">
<path d="M3.27551 8.81323C3.05796 8.81323 2.87172 8.73577 2.7168 8.58085C2.56188 8.42592 2.48442 8.23969 2.48442 8.02214V2.88H2.08887V2.08891H4.06661V1.69336H6.4399V2.08891H8.41764V2.88H8.02209V8.02214C8.02209 8.23969 7.94463 8.42592 7.78971 8.58085C7.63479 8.73577 7.44855 8.81323 7.231 8.81323H3.27551ZM7.231 2.88H3.27551V8.02214H7.231V2.88ZM4.06661 7.23104H4.85771V3.6711H4.06661V7.23104ZM5.6488 7.23104H6.4399V3.6711H5.6488V7.23104Z" fill="#616161"/>
</g>
</svg>
