<svg width="10" height="10" viewBox="0 0 10 10" fill="none" xmlns="http://www.w3.org/2000/svg">
<mask id="mask0_1032_481" style="mask-type:alpha" maskUnits="userSpaceOnUse" x="0" y="0" width="10" height="10">
<rect width="10" height="10" fill="#616161"/>
</mask>
<g mask="url(#mask0_1032_481)">
<path d="M3.33366 7.49992H6.66699V6.66659H3.33366V7.49992ZM3.33366 5.83325H6.66699V4.99992H3.33366V5.83325ZM2.50033 9.16659C2.27116 9.16659 2.07498 9.08499 1.91178 8.92179C1.74859 8.7586 1.66699 8.56242 1.66699 8.33325V1.66659C1.66699 1.43742 1.74859 1.24124 1.91178 1.07804C2.07498 0.914849 2.27116 0.833252 2.50033 0.833252H5.83366L8.33366 3.33325V8.33325C8.33366 8.56242 8.25206 8.7586 8.08887 8.92179C7.92567 9.08499 7.72949 9.16659 7.50033 9.16659H2.50033ZM5.41699 3.74992V1.66659H2.50033V8.33325H7.50033V3.74992H5.41699Z" fill="#616161"/>
</g>
</svg>
