<svg width="30" height="30" viewBox="0 0 30 30" fill="none" xmlns="http://www.w3.org/2000/svg">
<path d="M7.5 25H22.5C25.25 25 27.5 22.75 27.5 20V11.25C27.5 8.5 25.25 6.25 22.5 6.25V5C22.5 4.25 22 3.75 21.25 3.75C20.5 3.75 20 4.25 20 5V6.25H10V5C10 4.25 9.5 3.75 8.75 3.75C8 3.75 7.5 4.25 7.5 5V6.25C4.75 6.25 2.5 8.5 2.5 11.25V20C2.5 22.75 4.75 25 7.5 25ZM5 11.25C5 9.875 6.125 8.75 7.5 8.75C7.5 9.5 8 10 8.75 10C9.5 10 10 9.5 10 8.75H20C20 9.5 20.5 10 21.25 10C22 10 22.5 9.5 22.5 8.75C23.875 8.75 25 9.875 25 11.25V20C25 21.375 23.875 22.5 22.5 22.5H7.5C6.125 22.5 5 21.375 5 20V11.25Z" fill="#0049C6"/>
<path d="M10.625 16.125L12.375 17.125L11.5 19C11.25 19.5 11.375 20.125 11.875 20.5C12.375 20.875 13 20.875 13.5 20.375L15 19L16.5 20.375C16.75 20.625 17 20.75 17.375 20.75C17.625 20.75 17.875 20.625 18.125 20.5C18.625 20.125 18.75 19.5 18.5 19L17.625 17.125L19.375 16.125C19.875 15.875 20.125 15.25 20 14.625C19.875 14.125 19.25 13.75 18.625 13.75L16.625 14L16.25 12C16.125 11.375 15.625 11 15 11C14.375 11 13.875 11.375 13.75 12L13.375 14L11.375 13.75C10.75 13.75 10.25 14 9.99999 14.625C9.87499 15.25 10.125 15.75 10.625 16.125Z" fill="#0049C6"/>
</svg>
