<svg width="16" height="16" viewBox="0 0 16 16" fill="none" xmlns="http://www.w3.org/2000/svg">
<g clip-path="url(#clip0_1232_3541)">
<path d="M5.33329 14.0013H2.66663C2.48981 14.0013 2.32025 13.9311 2.19522 13.806C2.0702 13.681 1.99996 13.5114 1.99996 13.3346V10.668C1.99996 10.4912 1.92972 10.3216 1.8047 10.1966C1.67967 10.0715 1.5101 10.0013 1.33329 10.0013C1.15648 10.0013 0.986912 10.0715 0.861888 10.1966C0.736864 10.3216 0.666626 10.4912 0.666626 10.668V13.3346C0.666626 13.8651 0.87734 14.3738 1.25241 14.7488C1.62749 15.1239 2.13619 15.3346 2.66663 15.3346H5.33329C5.5101 15.3346 5.67967 15.2644 5.8047 15.1394C5.92972 15.0143 5.99996 14.8448 5.99996 14.668C5.99996 14.4912 5.92972 14.3216 5.8047 14.1966C5.67967 14.0715 5.5101 14.0013 5.33329 14.0013ZM14.6666 10.0013C14.4898 10.0013 14.3202 10.0715 14.1952 10.1966C14.0702 10.3216 14 10.4912 14 10.668V13.3346C14 13.5114 13.9297 13.681 13.8047 13.806C13.6797 13.9311 13.5101 14.0013 13.3333 14.0013H10.6666C10.4898 14.0013 10.3202 14.0715 10.1952 14.1966C10.0702 14.3216 9.99996 14.4912 9.99996 14.668C9.99996 14.8448 10.0702 15.0143 10.1952 15.1394C10.3202 15.2644 10.4898 15.3346 10.6666 15.3346H13.3333C13.8637 15.3346 14.3724 15.1239 14.7475 14.7488C15.1226 14.3738 15.3333 13.8651 15.3333 13.3346V10.668C15.3333 10.4912 15.2631 10.3216 15.138 10.1966C15.013 10.0715 14.8434 10.0013 14.6666 10.0013ZM13.3333 0.667969H10.6666C10.4898 0.667969 10.3202 0.738207 10.1952 0.863231C10.0702 0.988255 9.99996 1.15782 9.99996 1.33464C9.99996 1.51145 10.0702 1.68102 10.1952 1.80604C10.3202 1.93106 10.4898 2.0013 10.6666 2.0013H13.3333C13.5101 2.0013 13.6797 2.07154 13.8047 2.19656C13.9297 2.32159 14 2.49116 14 2.66797V5.33464C14 5.51145 14.0702 5.68102 14.1952 5.80604C14.3202 5.93106 14.4898 6.0013 14.6666 6.0013C14.8434 6.0013 15.013 5.93106 15.138 5.80604C15.2631 5.68102 15.3333 5.51145 15.3333 5.33464V2.66797C15.3333 2.13754 15.1226 1.62883 14.7475 1.25376C14.3724 0.878682 13.8637 0.667969 13.3333 0.667969ZM1.33329 6.0013C1.5101 6.0013 1.67967 5.93106 1.8047 5.80604C1.92972 5.68102 1.99996 5.51145 1.99996 5.33464V2.66797C1.99996 2.49116 2.0702 2.32159 2.19522 2.19656C2.32025 2.07154 2.48981 2.0013 2.66663 2.0013H5.33329C5.5101 2.0013 5.67967 1.93106 5.8047 1.80604C5.92972 1.68102 5.99996 1.51145 5.99996 1.33464C5.99996 1.15782 5.92972 0.988255 5.8047 0.863231C5.67967 0.738207 5.5101 0.667969 5.33329 0.667969H2.66663C2.13619 0.667969 1.62749 0.878682 1.25241 1.25376C0.87734 1.62883 0.666626 2.13754 0.666626 2.66797V5.33464C0.666626 5.51145 0.736864 5.68102 0.861888 5.80604C0.986912 5.93106 1.15648 6.0013 1.33329 6.0013ZM6.66663 3.33464H3.99996C3.82315 3.33464 3.65358 3.40487 3.52855 3.5299C3.40353 3.65492 3.33329 3.82449 3.33329 4.0013V6.66797C3.33329 6.84478 3.40353 7.01435 3.52855 7.13937C3.65358 7.2644 3.82315 7.33464 3.99996 7.33464H6.66663C6.84344 7.33464 7.01301 7.2644 7.13803 7.13937C7.26305 7.01435 7.33329 6.84478 7.33329 6.66797V4.0013C7.33329 3.82449 7.26305 3.65492 7.13803 3.5299C7.01301 3.40487 6.84344 3.33464 6.66663 3.33464ZM9.33329 7.33464H12C12.1768 7.33464 12.3463 7.2644 12.4714 7.13937C12.5964 7.01435 12.6666 6.84478 12.6666 6.66797V4.0013C12.6666 3.82449 12.5964 3.65492 12.4714 3.5299C12.3463 3.40487 12.1768 3.33464 12 3.33464H9.33329C9.15648 3.33464 8.98691 3.40487 8.86189 3.5299C8.73686 3.65492 8.66663 3.82449 8.66663 4.0013V6.66797C8.66663 6.84478 8.73686 7.01435 8.86189 7.13937C8.98691 7.2644 9.15648 7.33464 9.33329 7.33464ZM6.66663 8.66797H3.99996C3.82315 8.66797 3.65358 8.73821 3.52855 8.86323C3.40353 8.98826 3.33329 9.15782 3.33329 9.33464V12.0013C3.33329 12.1781 3.40353 12.3477 3.52855 12.4727C3.65358 12.5977 3.82315 12.668 3.99996 12.668H6.66663C6.84344 12.668 7.01301 12.5977 7.13803 12.4727C7.26305 12.3477 7.33329 12.1781 7.33329 12.0013V9.33464C7.33329 9.15782 7.26305 8.98826 7.13803 8.86323C7.01301 8.73821 6.84344 8.66797 6.66663 8.66797ZM9.33329 10.668C9.5101 10.668 9.67967 10.5977 9.8047 10.4727C9.92972 10.3477 9.99996 10.1781 9.99996 10.0013C10.1768 10.0013 10.3463 9.93106 10.4714 9.80604C10.5964 9.68102 10.6666 9.51145 10.6666 9.33464C10.6666 9.15782 10.5964 8.98826 10.4714 8.86323C10.3463 8.73821 10.1768 8.66797 9.99996 8.66797H9.33329C9.15648 8.66797 8.98691 8.73821 8.86189 8.86323C8.73686 8.98826 8.66663 9.15782 8.66663 9.33464V10.0013C8.66663 10.1781 8.73686 10.3477 8.86189 10.4727C8.98691 10.5977 9.15648 10.668 9.33329 10.668ZM12 8.66797C11.8231 8.66797 11.6536 8.73821 11.5286 8.86323C11.4035 8.98826 11.3333 9.15782 11.3333 9.33464V11.3346C11.1565 11.3346 10.9869 11.4049 10.8619 11.5299C10.7369 11.6549 10.6666 11.8245 10.6666 12.0013C10.6666 12.1781 10.7369 12.3477 10.8619 12.4727C10.9869 12.5977 11.1565 12.668 11.3333 12.668H12C12.1768 12.668 12.3463 12.5977 12.4714 12.4727C12.5964 12.3477 12.6666 12.1781 12.6666 12.0013V9.33464C12.6666 9.15782 12.5964 8.98826 12.4714 8.86323C12.3463 8.73821 12.1768 8.66797 12 8.66797ZM9.33329 11.3346C9.20144 11.3346 9.07255 11.3737 8.96291 11.447C8.85328 11.5202 8.76783 11.6244 8.71737 11.7462C8.66691 11.868 8.65371 12.002 8.67944 12.1314C8.70516 12.2607 8.76865 12.3795 8.86189 12.4727C8.95512 12.5659 9.07391 12.6294 9.20323 12.6552C9.33255 12.6809 9.4666 12.6677 9.58842 12.6172C9.71023 12.5668 9.81435 12.4813 9.88761 12.3717C9.96086 12.262 9.99996 12.1332 9.99996 12.0013C9.99996 11.8245 9.92972 11.6549 9.8047 11.5299C9.67967 11.4049 9.5101 11.3346 9.33329 11.3346Z" fill="#303348"/>
</g>
<defs>
<clipPath id="clip0_1232_3541">
<rect width="16" height="16" fill="white"/>
</clipPath>
</defs>
</svg>
