<svg width="24" height="24" viewBox="0 0 24 24" fill="none" xmlns="http://www.w3.org/2000/svg">
<path d="M15.71 8.28983C15.6171 8.19611 15.5065 8.12171 15.3846 8.07094C15.2627 8.02017 15.132 7.99404 15 7.99404C14.868 7.99404 14.7373 8.02017 14.6154 8.07094C14.4936 8.12171 14.383 8.19611 14.29 8.28983L12 10.5898L9.71002 8.28983C9.52171 8.10153 9.26632 7.99574 9.00002 7.99574C8.73372 7.99574 8.47832 8.10153 8.29002 8.28983C8.10171 8.47814 7.99593 8.73353 7.99593 8.99984C7.99593 9.26614 8.10171 9.52153 8.29002 9.70984L10.59 11.9998L8.29002 14.2898C8.19629 14.3828 8.1219 14.4934 8.07113 14.6153C8.02036 14.7371 7.99422 14.8678 7.99422 14.9998C7.99422 15.1318 8.02036 15.2626 8.07113 15.3844C8.1219 15.5063 8.19629 15.6169 8.29002 15.7098C8.38298 15.8036 8.49358 15.878 8.61544 15.9287C8.7373 15.9795 8.86801 16.0056 9.00002 16.0056C9.13203 16.0056 9.26274 15.9795 9.38459 15.9287C9.50645 15.878 9.61705 15.8036 9.71002 15.7098L12 13.4098L14.29 15.7098C14.383 15.8036 14.4936 15.878 14.6154 15.9287C14.7373 15.9795 14.868 16.0056 15 16.0056C15.132 16.0056 15.2627 15.9795 15.3846 15.9287C15.5065 15.878 15.6171 15.8036 15.71 15.7098C15.8037 15.6169 15.8781 15.5063 15.9289 15.3844C15.9797 15.2626 16.0058 15.1318 16.0058 14.9998C16.0058 14.8678 15.9797 14.7371 15.9289 14.6153C15.8781 14.4934 15.8037 14.3828 15.71 14.2898L13.41 11.9998L15.71 9.70984C15.8037 9.61687 15.8781 9.50627 15.9289 9.38441C15.9797 9.26255 16.0058 9.13185 16.0058 8.99984C16.0058 8.86782 15.9797 8.73712 15.9289 8.61526C15.8781 8.4934 15.8037 8.3828 15.71 8.28983ZM19.07 4.92984C18.1476 3.97473 17.0441 3.21291 15.8241 2.68882C14.604 2.16473 13.2918 1.88887 11.964 1.87733C10.6362 1.86579 9.31944 2.11881 8.09048 2.62162C6.86151 3.12443 5.745 3.86696 4.80607 4.80589C3.86714 5.74481 3.12461 6.86133 2.6218 8.09029C2.11899 9.31926 1.86598 10.6361 1.87751 11.9638C1.88905 13.2916 2.16491 14.6038 2.689 15.8239C3.21309 17.0439 3.97492 18.1474 4.93002 19.0698C5.85249 20.0249 6.95593 20.7868 8.17597 21.3109C9.39601 21.8349 10.7082 22.1108 12.036 22.1223C13.3638 22.1339 14.6806 21.8809 15.9096 21.3781C17.1385 20.8752 18.255 20.1327 19.194 19.1938C20.1329 18.2549 20.8754 17.1383 21.3782 15.9094C21.881 14.6804 22.1341 13.3636 22.1225 12.0358C22.111 10.708 21.8351 9.39583 21.311 8.17579C20.7869 6.95575 20.0251 5.8523 19.07 4.92984ZM17.66 17.6598C16.3521 18.9692 14.6306 19.7847 12.7888 19.9671C10.9471 20.1496 9.09902 19.6879 7.55954 18.6606C6.02006 17.6333 4.88438 16.104 4.34599 14.3333C3.80761 12.5626 3.89982 10.66 4.60693 8.94962C5.31404 7.23926 6.59229 5.82698 8.22391 4.9534C9.85553 4.07981 11.7396 3.79897 13.555 4.15871C15.3705 4.51845 17.0051 5.49653 18.1803 6.9263C19.3555 8.35607 19.9986 10.1491 20 11.9998C20.0036 13.0511 19.7986 14.0927 19.3969 15.0642C18.9953 16.0358 18.4049 16.918 17.66 17.6598Z" fill="#303348"/>
</svg>
