<svg width="22" height="19" viewBox="0 0 22 19" fill="none" xmlns="http://www.w3.org/2000/svg">
<path d="M5.995 7.18887C5.995 6.07862 5.4185 5.10652 4.5585 4.56423C5.128 4.09333 5.4965 3.37542 5.4965 2.56764C5.4965 1.15184 4.375 0 2.9965 0C1.618 0 0.4965 1.15184 0.4965 2.56764C0.4965 3.37542 0.864 4.09435 1.4335 4.56526C0.5755 5.10754 0 6.07914 0 7.18887V10.7836C0 11.4527 0.4165 12.0237 0.9965 12.2358V17.4594C0.9965 18.3088 1.6695 19 2.4965 19C2.762 19 3.02 18.9266 3.246 18.7905C3.4725 18.9261 3.73 19 3.9955 19C4.8225 19 5.4955 18.3088 5.4955 17.4594L5.4965 11.958C5.823 11.4517 5.9955 10.8719 5.9965 10.2695L5.995 7.18887ZM2.9965 1.02654C3.8235 1.02654 4.4965 1.71775 4.4965 2.56712C4.4965 3.4165 3.8235 4.10771 2.9965 4.10771C2.1695 4.10771 1.4965 3.4165 1.4965 2.56712C1.4965 1.71775 2.1695 1.02654 2.9965 1.02654ZM4.595 11.4891C4.5305 11.578 4.496 11.6853 4.496 11.7962V17.4594C4.496 17.7424 4.272 17.9729 3.996 17.9729C3.964 17.9729 3.9365 17.9663 3.9085 17.9606C3.9615 17.8025 3.9965 17.6356 3.9965 17.4594V12.3241C3.9965 12.0407 3.773 11.8106 3.4965 11.8106C3.22 11.8106 2.9965 12.0407 2.9965 12.3241V17.4594C2.9965 17.7424 2.7725 17.9729 2.4965 17.9729C2.2205 17.9729 1.9965 17.7424 1.9965 17.4594V12.2307C2.579 12.0191 3 11.4537 3 10.7836V7.7024C3 7.41893 2.7765 7.18887 2.5 7.18887C2.2235 7.18887 2 7.41893 2 7.7024V10.7836C2 11.0665 1.776 11.2971 1.5 11.2971L1.4985 11.2976C1.4985 11.2976 1.4975 11.2971 1.4965 11.2971C1.223 11.2971 1 11.0665 1 10.7836V7.18887C1 6.05603 1.8955 5.13476 2.9965 5.13476C4.0985 5.13476 4.995 6.05603 4.995 7.18887L4.9955 10.27C4.9955 10.707 4.857 11.1281 4.595 11.4891ZM11.1465 8.06546C10.951 7.86467 10.951 7.54012 11.1465 7.33933L12.293 6.16182H8.5C8.2235 6.16182 8 5.93176 8 5.64829C8 5.36482 8.2235 5.13476 8.5 5.13476H12.293L11.1465 3.95724C10.951 3.75645 10.951 3.4319 11.1465 3.23111C11.342 3.03033 11.658 3.03033 11.8535 3.23111L13.8535 5.28522C14.049 5.48601 14.049 5.81056 13.8535 6.01135L11.8535 8.06546C11.6585 8.26625 11.342 8.26625 11.1465 8.06546ZM10.8535 10.934C11.049 11.1348 11.049 11.4594 10.8535 11.6602L9.707 12.8377H13.5C13.7765 12.8377 14 13.0677 14 13.3512C14 13.6347 13.7765 13.8647 13.5 13.8647H9.707L10.8535 15.0422C11.049 15.243 11.049 15.5676 10.8535 15.7684C10.658 15.9692 10.342 15.9692 10.1465 15.7684L8.1465 13.7143C7.951 13.5135 7.951 13.1889 8.1465 12.9881L10.1465 10.934C10.342 10.7332 10.6585 10.7332 10.8535 10.934ZM16.0035 10.27C16.0045 10.8719 16.177 11.4522 16.5035 11.9585L16.5045 17.4594C16.5045 18.3088 17.1775 19 18.0045 19C18.27 19 18.528 18.9261 18.754 18.7905C18.98 18.9261 19.238 19 19.5035 19C20.3305 19 21.0035 18.3088 21.0035 17.4594V12.2358C21.5835 12.0237 22 11.4527 22 10.7836V7.18887C22 6.07914 21.4245 5.10754 20.5665 4.56526C21.136 4.09435 21.5035 3.3749 21.5035 2.56764C21.5035 1.15184 20.382 0 19.0035 0C17.625 0 16.5035 1.15184 16.5035 2.56764C16.5035 3.37542 16.872 4.09333 17.4415 4.56423C16.5815 5.10652 16.005 6.07862 16.005 7.18887L16.0035 10.27ZM20.5035 2.56712C20.5035 3.4165 19.8305 4.10771 19.0035 4.10771C18.1765 4.10771 17.5035 3.4165 17.5035 2.56712C17.5035 1.71775 18.1765 1.02654 19.0035 1.02654C19.8305 1.02654 20.5035 1.71775 20.5035 2.56712ZM17.0045 10.27L17.005 7.18887C17.005 6.05603 17.9015 5.13476 19.0035 5.13476C20.1045 5.13476 21 6.05603 21 7.18887V10.7836C21 11.0665 20.7775 11.2971 20.5035 11.2971L20.502 11.2976L20.5 11.2971C20.224 11.2971 20 11.0665 20 10.7836V7.7024C20 7.41893 19.7765 7.18887 19.5 7.18887C19.2235 7.18887 19 7.41893 19 7.7024V10.7836C19 11.4537 19.421 12.0191 20.0035 12.2307V17.4594C20.0035 17.7424 19.7795 17.9729 19.5035 17.9729C19.2275 17.9729 19.0035 17.7424 19.0035 17.4594V12.3241C19.0035 12.0407 18.78 11.8106 18.5035 11.8106C18.227 11.8106 18.0035 12.0407 18.0035 12.3241V17.4594C18.0035 17.6361 18.0385 17.803 18.092 17.9611C18.064 17.9663 18.0365 17.9729 18.0045 17.9729C17.7285 17.9729 17.5045 17.7424 17.5045 17.4594V11.7962C17.5045 11.6853 17.47 11.578 17.4055 11.4891C17.143 11.1281 17.0045 10.707 17.0045 10.27Z" fill="#303348"/>
</svg>
