<svg width="44" height="44" viewBox="0 0 44 44" fill="none" xmlns="http://www.w3.org/2000/svg">
<path d="M22 3.66602C18.374 3.66602 14.8294 4.74125 11.8145 6.75574C8.79964 8.77023 6.44981 11.6335 5.06221 14.9835C3.6746 18.3335 3.31154 22.0197 4.01893 25.576C4.72633 29.1323 6.47241 32.399 9.03637 34.963C11.6003 37.5269 14.867 39.273 18.4233 39.9804C21.9797 40.6878 25.6659 40.3247 29.0159 38.9371C32.3658 37.5495 35.2291 35.1997 37.2436 32.1848C39.2581 29.1699 40.3333 25.6253 40.3333 21.9993C40.3333 19.5918 39.8591 17.2078 38.9378 14.9835C38.0165 12.7592 36.666 10.7381 34.9636 9.03572C33.2612 7.33332 31.2402 5.98289 29.0159 5.06156C26.7916 4.14022 24.4076 3.66602 22 3.66602ZM22 36.666C19.0992 36.666 16.2636 35.8058 13.8516 34.1942C11.4397 32.5826 9.55985 30.292 8.44977 27.612C7.33968 24.9321 7.04923 21.9831 7.61515 19.138C8.18106 16.293 9.57793 13.6796 11.6291 11.6284C13.6803 9.57728 16.2936 8.18042 19.1387 7.6145C21.9837 7.04858 24.9327 7.33903 27.6127 8.44912C30.2927 9.5592 32.5833 11.4391 34.1949 13.851C35.8065 16.2629 36.6667 19.0986 36.6667 21.9993C36.6667 25.8892 35.1214 29.6197 32.3709 32.3702C29.6204 35.1208 25.8898 36.666 22 36.666Z" fill="#ABABAB"/>
<path d="M27.5 20.166H23.8333V16.4993C23.8333 16.0131 23.6402 15.5468 23.2964 15.203C22.9525 14.8592 22.4862 14.666 22 14.666C21.5138 14.666 21.0474 14.8592 20.7036 15.203C20.3598 15.5468 20.1667 16.0131 20.1667 16.4993V20.166H16.5C16.0138 20.166 15.5474 20.3592 15.2036 20.703C14.8598 21.0468 14.6667 21.5131 14.6667 21.9993C14.6667 22.4856 14.8598 22.9519 15.2036 23.2957C15.5474 23.6395 16.0138 23.8327 16.5 23.8327H20.1667V27.4993C20.1667 27.9856 20.3598 28.4519 20.7036 28.7957C21.0474 29.1395 21.5138 29.3327 22 29.3327C22.4862 29.3327 22.9525 29.1395 23.2964 28.7957C23.6402 28.4519 23.8333 27.9856 23.8333 27.4993V23.8327H27.5C27.9862 23.8327 28.4525 23.6395 28.7964 23.2957C29.1402 22.9519 29.3333 22.4856 29.3333 21.9993C29.3333 21.5131 29.1402 21.0468 28.7964 20.703C28.4525 20.3592 27.9862 20.166 27.5 20.166Z" fill="#ABABAB"/>
</svg>
