<svg width="16" height="16" viewBox="0 0 16 16" fill="none" xmlns="http://www.w3.org/2000/svg">
<g clip-path="url(#clip0_1044_2516)">
<path d="M4 8.66675H12C12.3667 8.66675 12.6667 8.36675 12.6667 8.00008C12.6667 7.63341 12.3667 7.33341 12 7.33341H4C3.63333 7.33341 3.33333 7.63341 3.33333 8.00008C3.33333 8.36675 3.63333 8.66675 4 8.66675ZM2.66667 11.3334H10.6667C11.0333 11.3334 11.3333 11.0334 11.3333 10.6667C11.3333 10.3001 11.0333 10.0001 10.6667 10.0001H2.66667C2.3 10.0001 2 10.3001 2 10.6667C2 11.0334 2.3 11.3334 2.66667 11.3334ZM4.66667 5.33341C4.66667 5.70008 4.96667 6.00008 5.33333 6.00008H13.3333C13.7 6.00008 14 5.70008 14 5.33341C14 4.96675 13.7 4.66675 13.3333 4.66675H5.33333C4.96667 4.66675 4.66667 4.96675 4.66667 5.33341Z" fill="#303348"/>
</g>
<defs>
<clipPath id="clip0_1044_2516">
<rect width="16" height="16" fill="white"/>
</clipPath>
</defs>
</svg>
