<svg width="14" height="14" viewBox="0 0 14 14" fill="none" xmlns="http://www.w3.org/2000/svg">
<path d="M9.49333 10.7422L7.00033 8.24878L4.50667 10.7422C4.34139 10.9073 4.11741 11 3.88388 11C3.65035 11 3.42634 10.9074 3.26104 10.7423C3.09573 10.5773 3.00262 10.3534 3.00214 10.1198C3.00167 9.88613 3.09387 9.66185 3.2585 9.49615L5.75283 7.00207L3.2585 4.50732C3.09299 4.34173 3 4.11715 3 3.88297C3 3.64879 3.09299 3.4242 3.2585 3.25862C3.42402 3.09303 3.64851 3 3.88259 3C4.11666 3 4.34115 3.09303 4.50667 3.25862L7.00033 5.75336L9.49333 3.25862C9.57529 3.17662 9.67258 3.11159 9.77966 3.06721C9.88674 3.02284 10.0015 3 10.1174 3C10.2333 3 10.3481 3.02284 10.4552 3.06721C10.5622 3.11159 10.6595 3.17662 10.7415 3.25862C10.8235 3.34061 10.8885 3.43795 10.9328 3.54507C10.9772 3.6522 11 3.76702 11 3.88297C11 3.99892 10.9772 4.11374 10.9328 4.22087C10.8885 4.32799 10.8235 4.42533 10.7415 4.50732L8.24783 7.00207L10.7415 9.49615C10.9061 9.66185 10.9983 9.88613 10.9979 10.1198C10.9974 10.3534 10.9043 10.5773 10.739 10.7423C10.5737 10.9074 10.3497 11 10.1161 11C9.88259 11 9.65861 10.9073 9.49333 10.7422Z" fill="#303348"/>
</svg>
