<svg width="22" height="22" viewBox="0 0 22 22" fill="none" xmlns="http://www.w3.org/2000/svg">
<path d="M11 1.8335C9.18699 1.8335 7.41471 2.37111 5.90726 3.37836C4.39981 4.3856 3.22489 5.81724 2.53109 7.49223C1.83728 9.16722 1.65575 11.0103 2.00945 12.7885C2.36315 14.5667 3.23619 16.2 4.51817 17.482C5.80015 18.764 7.4335 19.637 9.21166 19.9907C10.9898 20.3444 12.8329 20.1629 14.5079 19.4691C16.1829 18.7753 17.6145 17.6003 18.6218 16.0929C19.629 14.5854 20.1666 12.8132 20.1666 11.0002C20.1666 9.79638 19.9295 8.60438 19.4689 7.49223C19.0082 6.38008 18.333 5.36955 17.4818 4.51835C16.6306 3.66715 15.6201 2.99194 14.5079 2.53127C13.3958 2.0706 12.2038 1.8335 11 1.8335ZM11 18.3335C9.54959 18.3335 8.13176 17.9034 6.9258 17.0976C5.71984 16.2918 4.77991 15.1465 4.22487 13.8065C3.66982 12.4665 3.5246 10.992 3.80756 9.5695C4.09052 8.14697 4.78895 6.8403 5.81453 5.81471C6.84012 4.78913 8.14679 4.0907 9.56932 3.80774C10.9918 3.52478 12.4663 3.67 13.8063 4.22505C15.1463 4.78009 16.2916 5.72002 17.0974 6.92598C17.9032 8.13194 18.3333 9.54977 18.3333 11.0002C18.3333 12.9451 17.5607 14.8103 16.1854 16.1856C14.8102 17.5609 12.9449 18.3335 11 18.3335Z" fill="#474747"/>
<path d="M11 8.25033C11.5062 8.25033 11.9166 7.83992 11.9166 7.33366C11.9166 6.8274 11.5062 6.41699 11 6.41699C10.4937 6.41699 10.0833 6.8274 10.0833 7.33366C10.0833 7.83992 10.4937 8.25033 11 8.25033Z" fill="#474747"/>
<path d="M11 9.16699C10.7569 9.16699 10.5237 9.26357 10.3518 9.43548C10.1799 9.60739 10.0833 9.84054 10.0833 10.0837V14.667C10.0833 14.9101 10.1799 15.1433 10.3518 15.3152C10.5237 15.4871 10.7569 15.5837 11 15.5837C11.2431 15.5837 11.4763 15.4871 11.6482 15.3152C11.8201 15.1433 11.9166 14.9101 11.9166 14.667V10.0837C11.9166 9.84054 11.8201 9.60739 11.6482 9.43548C11.4763 9.26357 11.2431 9.16699 11 9.16699Z" fill="#474747"/>
</svg>
