<svg width="22" height="22" viewBox="0 0 22 22" fill="none" xmlns="http://www.w3.org/2000/svg">
<g clip-path="url(#clip0_896_1815)">
<path fill-rule="evenodd" clip-rule="evenodd" d="M11.0035 0.915039C5.44494 0.915039 0.912994 5.44057 0.912994 10.9982C0.912994 16.5559 5.44585 21.087 11.0035 21.087C16.5612 21.087 21.0849 16.5559 21.0849 10.9982C21.0849 5.44057 16.5612 0.915039 11.0035 0.915039ZM11.0035 2.74835C12.0873 2.74654 13.1609 2.9587 14.1625 3.37268C15.1641 3.78666 16.0742 4.3943 16.8405 5.16076C17.6068 5.92722 18.2142 6.83741 18.628 7.83914C19.0417 8.84087 19.2537 9.91443 19.2516 10.9982C19.2538 12.0824 19.042 13.1562 18.6283 14.1583C18.2147 15.1604 17.6073 16.071 16.8411 16.8379C16.0748 17.6049 15.1648 18.213 14.1631 18.6276C13.1613 19.0421 12.0876 19.2549 11.0035 19.2536C9.91896 19.255 8.84478 19.0424 7.84248 18.628C6.84019 18.2136 5.92948 17.6056 5.16248 16.8388C4.39549 16.0719 3.78728 15.1614 3.37267 14.1592C2.95807 13.157 2.74522 12.0828 2.7463 10.9982C2.7463 6.43147 6.43676 2.74835 11.0035 2.74835ZM10.9889 4.56883C10.8677 4.57001 10.748 4.59521 10.6366 4.64296C10.5253 4.69071 10.4245 4.76006 10.3401 4.84701C10.2557 4.93396 10.1894 5.03677 10.145 5.14951C10.1006 5.26225 10.0789 5.38267 10.0814 5.50381V10.9982C10.0819 11.1189 10.1062 11.2382 10.1529 11.3494C10.1996 11.4606 10.2678 11.5615 10.3536 11.6463L14.0202 15.3148C14.1051 15.4021 14.2064 15.4716 14.3184 15.5193C14.4303 15.567 14.5507 15.5919 14.6724 15.5926C14.7941 15.5933 14.9147 15.5697 15.0272 15.5233C15.1397 15.4769 15.2418 15.4086 15.3276 15.3223C15.4134 15.236 15.4812 15.1335 15.527 15.0207C15.5728 14.9079 15.5956 14.7872 15.5942 14.6655C15.5928 14.5438 15.5672 14.4236 15.5189 14.3119C15.4706 14.2002 15.4005 14.0993 15.3127 14.015L11.9165 10.6187V5.50381C11.919 5.38097 11.8967 5.25889 11.8511 5.14482C11.8054 5.03075 11.7373 4.92702 11.6508 4.8398C11.5642 4.75258 11.461 4.68364 11.3473 4.63709C11.2336 4.59054 11.1117 4.56733 10.9889 4.56883Z" fill="#474747"/>
</g>
<defs>
<clipPath id="clip0_896_1815">
<rect width="22" height="22" fill="white"/>
</clipPath>
</defs>
</svg>
