<svg width="22" height="22" viewBox="0 0 22 22" fill="none" xmlns="http://www.w3.org/2000/svg">
<path d="M6.41208 9.1667C6.41208 8.17578 5.88362 7.30816 5.09529 6.82415C5.61733 6.40386 5.95512 5.76311 5.95512 5.04216C5.95512 3.77853 4.92708 2.75049 3.66346 2.75049C2.39983 2.75049 1.37179 3.77853 1.37179 5.04216C1.37179 5.76311 1.70866 6.40478 2.23071 6.82507C1.44421 7.30907 0.916664 8.17624 0.916664 9.1667V12.375C0.916664 12.9722 1.29846 13.4819 1.83012 13.6712V18.3334C1.83012 19.0914 2.44704 19.7084 3.20512 19.7084C3.4485 19.7084 3.685 19.6428 3.89216 19.5214C4.09979 19.6424 4.33583 19.7084 4.57921 19.7084C5.33729 19.7084 5.95421 19.0914 5.95421 18.3334L5.95512 13.4232C6.25441 12.9713 6.41254 12.4539 6.41346 11.9162L6.41208 9.1667ZM3.66346 3.6667C4.42154 3.6667 5.03846 4.28361 5.03846 5.0417C5.03846 5.79978 4.42154 6.4167 3.66346 6.4167C2.90537 6.4167 2.28846 5.79978 2.28846 5.0417C2.28846 4.28361 2.90537 3.6667 3.66346 3.6667ZM5.12875 13.0048C5.06962 13.0841 5.038 13.1799 5.038 13.2789V18.3334C5.038 18.5859 4.83266 18.7917 4.57966 18.7917C4.55033 18.7917 4.52512 18.7857 4.49946 18.7807C4.54804 18.6395 4.58012 18.4906 4.58012 18.3334V13.75C4.58012 13.497 4.37525 13.2917 4.12179 13.2917C3.86833 13.2917 3.66346 13.497 3.66346 13.75V18.3334C3.66346 18.5859 3.45812 18.7917 3.20512 18.7917C2.95212 18.7917 2.74679 18.5859 2.74679 18.3334V13.6666C3.28075 13.4778 3.66666 12.9732 3.66666 12.375V9.62503C3.66666 9.37203 3.46179 9.1667 3.20833 9.1667C2.95487 9.1667 2.75 9.37203 2.75 9.62503V12.375C2.75 12.6276 2.54466 12.8334 2.29166 12.8334L2.29029 12.8338C2.29029 12.8338 2.28937 12.8334 2.28846 12.8334C2.03775 12.8334 1.83333 12.6276 1.83333 12.375V9.1667C1.83333 8.15561 2.65421 7.33336 3.66346 7.33336C4.67362 7.33336 5.49541 8.15561 5.49541 9.1667L5.49587 11.9167C5.49587 12.3067 5.36891 12.6826 5.12875 13.0048ZM11.1343 9.94907C10.9551 9.76986 10.9551 9.4802 11.1343 9.30099L12.1852 8.25003H8.70833C8.45487 8.25003 8.25 8.0447 8.25 7.7917C8.25 7.5387 8.45487 7.33336 8.70833 7.33336H12.1852L11.1343 6.2824C10.9551 6.1032 10.9551 5.81353 11.1343 5.63432C11.3135 5.45511 11.6032 5.45511 11.7824 5.63432L13.6157 7.46765C13.7949 7.64686 13.7949 7.93653 13.6157 8.11574L11.7824 9.94907C11.6036 10.1283 11.3135 10.1283 11.1343 9.94907ZM10.8657 12.5093C11.0449 12.6885 11.0449 12.9782 10.8657 13.1574L9.81475 14.2084H13.2917C13.5451 14.2084 13.75 14.4137 13.75 14.6667C13.75 14.9197 13.5451 15.125 13.2917 15.125H9.81475L10.8657 16.176C11.0449 16.3552 11.0449 16.6449 10.8657 16.8241C10.6865 17.0033 10.3968 17.0033 10.2176 16.8241L8.38429 14.9907C8.20508 14.8115 8.20508 14.5219 8.38429 14.3427L10.2176 12.5093C10.3968 12.3301 10.687 12.3301 10.8657 12.5093ZM15.5865 11.9167C15.5875 12.4539 15.7456 12.9718 16.0449 13.4237L16.0458 18.3334C16.0458 19.0914 16.6627 19.7084 17.4208 19.7084C17.6642 19.7084 17.9007 19.6424 18.1078 19.5214C18.315 19.6424 18.5515 19.7084 18.7949 19.7084C19.553 19.7084 20.1699 19.0914 20.1699 18.3334V13.6712C20.7015 13.4819 21.0833 12.9722 21.0833 12.375V9.1667C21.0833 8.17624 20.5558 7.30907 19.7693 6.82507C20.2913 6.40478 20.6282 5.76266 20.6282 5.04216C20.6282 3.77853 19.6002 2.75049 18.3365 2.75049C17.0729 2.75049 16.0449 3.77853 16.0449 5.04216C16.0449 5.76311 16.3827 6.40386 16.9047 6.82415C16.1164 7.30816 15.5879 8.17578 15.5879 9.1667L15.5865 11.9167ZM19.7115 5.0417C19.7115 5.79978 19.0946 6.4167 18.3365 6.4167C17.5785 6.4167 16.9615 5.79978 16.9615 5.0417C16.9615 4.28361 17.5785 3.6667 18.3365 3.6667C19.0946 3.6667 19.7115 4.28361 19.7115 5.0417ZM16.5041 11.9167L16.5046 9.1667C16.5046 8.15561 17.3264 7.33336 18.3365 7.33336C19.3458 7.33336 20.1667 8.15561 20.1667 9.1667V12.375C20.1667 12.6276 19.9627 12.8334 19.7115 12.8334L19.7102 12.8338L19.7083 12.8334C19.4553 12.8334 19.25 12.6276 19.25 12.375V9.62503C19.25 9.37203 19.0451 9.1667 18.7917 9.1667C18.5382 9.1667 18.3333 9.37203 18.3333 9.62503V12.375C18.3333 12.9732 18.7192 13.4778 19.2532 13.6666V18.3334C19.2532 18.5859 19.0479 18.7917 18.7949 18.7917C18.5419 18.7917 18.3365 18.5859 18.3365 18.3334V13.75C18.3365 13.497 18.1317 13.2917 17.8782 13.2917C17.6247 13.2917 17.4199 13.497 17.4199 13.75V18.3334C17.4199 18.491 17.452 18.64 17.501 18.7812C17.4753 18.7857 17.4501 18.7917 17.4208 18.7917C17.1678 18.7917 16.9625 18.5859 16.9625 18.3334V13.2789C16.9625 13.1799 16.9308 13.0841 16.8717 13.0048C16.6311 12.6826 16.5041 12.3067 16.5041 11.9167Z" fill="#474747"/>
</svg>
