<svg width="16" height="16" viewBox="0 0 16 16" fill="none" xmlns="http://www.w3.org/2000/svg">
<path d="M12.1 6.09652L11.9 12.15C11.883 12.6685 11.6646 13.1599 11.2912 13.5199C10.9178 13.88 10.4187 14.0804 9.90001 14.0785H6.10001C5.58162 14.0804 5.08289 13.8803 4.70954 13.5206C4.33618 13.161 4.11756 12.6701 4.10001 12.152L3.90001 6.09652C3.89564 5.96391 3.94412 5.83499 4.03479 5.73813C4.12547 5.64127 4.25091 5.58439 4.38351 5.58002C4.51612 5.57564 4.64504 5.62412 4.7419 5.7148C4.83876 5.80547 4.89564 5.93091 4.90001 6.06352L5.10001 12.1185C5.10997 12.377 5.21971 12.6216 5.40618 12.8009C5.59265 12.9802 5.84133 13.0802 6.10001 13.08H9.90001C10.159 13.0802 10.408 12.9799 10.5945 12.8001C10.781 12.6204 10.8906 12.3754 10.9 12.1165L11.1 6.06352C11.1044 5.93091 11.1613 5.80547 11.2581 5.7148C11.355 5.62412 11.4839 5.57564 11.6165 5.58002C11.7491 5.58439 11.8746 5.64127 11.9652 5.73813C12.0559 5.83499 12.1044 5.96391 12.1 6.09652ZM12.7615 4.08202C12.7615 4.21462 12.7088 4.3418 12.6151 4.43557C12.5213 4.52934 12.3941 4.58202 12.2615 4.58202H3.73901C3.60641 4.58202 3.47923 4.52934 3.38546 4.43557C3.29169 4.3418 3.23901 4.21462 3.23901 4.08202C3.23901 3.94941 3.29169 3.82223 3.38546 3.72846C3.47923 3.63469 3.60641 3.58202 3.73901 3.58202H5.28901C5.44744 3.58244 5.60035 3.52391 5.718 3.41781C5.83565 3.31172 5.90962 3.16564 5.92551 3.00802C5.96241 2.63826 6.13564 2.29548 6.41146 2.04647C6.68728 1.79746 7.04592 1.66005 7.41751 1.66102H8.58251C8.95411 1.66005 9.31275 1.79746 9.58857 2.04647C9.86438 2.29548 10.0376 2.63826 10.0745 3.00802C10.0904 3.16564 10.1644 3.31172 10.282 3.41781C10.3997 3.52391 10.5526 3.58244 10.711 3.58202H12.261C12.3936 3.58202 12.5208 3.63469 12.6146 3.72846C12.7083 3.82223 12.761 3.94941 12.761 4.08202H12.7615ZM6.79351 3.58202H9.20751C9.14181 3.43189 9.09884 3.27281 9.08001 3.11002C9.06763 2.98677 9.00993 2.87251 8.91811 2.78937C8.82629 2.70623 8.70688 2.66014 8.58301 2.66002H7.41801C7.29415 2.66014 7.17474 2.70623 7.08291 2.78937C6.99109 2.87251 6.9334 2.98677 6.92101 3.11002C6.90203 3.27283 6.85939 3.43191 6.79351 3.58202ZM7.29701 11.1575V6.90002C7.29701 6.76741 7.24434 6.64023 7.15057 6.54646C7.0568 6.45269 6.92962 6.40002 6.79701 6.40002C6.66441 6.40002 6.53723 6.45269 6.44346 6.54646C6.34969 6.64023 6.29701 6.76741 6.29701 6.90002V11.1595C6.29701 11.2921 6.34969 11.4193 6.44346 11.5131C6.53723 11.6068 6.66441 11.6595 6.79701 11.6595C6.92962 11.6595 7.0568 11.6068 7.15057 11.5131C7.24434 11.4193 7.29701 11.2921 7.29701 11.1595V11.1575ZM9.70401 11.1575V6.90002C9.70401 6.76741 9.65133 6.64023 9.55757 6.54646C9.4638 6.45269 9.33662 6.40002 9.20401 6.40002C9.07141 6.40002 8.94423 6.45269 8.85046 6.54646C8.75669 6.64023 8.70401 6.76741 8.70401 6.90002V11.1595C8.70401 11.2921 8.75669 11.4193 8.85046 11.5131C8.94423 11.6068 9.07141 11.6595 9.20401 11.6595C9.33662 11.6595 9.4638 11.6068 9.55757 11.5131C9.65133 11.4193 9.70401 11.2921 9.70401 11.1595V11.1575Z" fill="#747474"/>
</svg>
