<svg width="12" height="12" viewBox="0 0 12 12" fill="none" xmlns="http://www.w3.org/2000/svg">
<path d="M11.4439 0.555939C11.0852 0.199848 10.6003 0 10.0948 0C9.5893 0 9.10434 0.199848 8.7457 0.555939L0.502087 8.79663C0.424762 8.87644 0.373904 8.97812 0.356427 9.08785L0.00615186 11.4002C-0.00534728 11.4743 -0.000687667 11.55 0.0198113 11.6221C0.0403103 11.6942 0.0761639 11.7611 0.124915 11.818C0.173666 11.875 0.234162 11.9207 0.302256 11.9522C0.37035 11.9836 0.444433 11.9999 0.519427 12H0.599193L2.90893 11.6533C3.01869 11.6358 3.12041 11.585 3.20025 11.5077L11.4439 3.25315C11.8001 2.89464 12 2.40984 12 1.90454C12 1.39924 11.8001 0.914447 11.4439 0.555939ZM2.5864 10.6375L1.14021 10.8559L1.3587 9.41026L8.12838 2.64645L9.35261 3.87024L2.5864 10.6375ZM10.7086 2.51817L9.84508 3.38142L8.61738 2.15415L9.48093 1.29091C9.64374 1.12816 9.86454 1.03674 10.0948 1.03674C10.325 1.03674 10.5458 1.12816 10.7086 1.29091C10.8714 1.45366 10.9629 1.67439 10.9629 1.90454C10.9629 2.1347 10.8714 2.35543 10.7086 2.51817Z" fill="#747474"/>
</svg>
