<svg width="26" height="26" viewBox="0 0 26 26" fill="none" xmlns="http://www.w3.org/2000/svg">
<mask id="mask0_692_653" style="mask-type:alpha" maskUnits="userSpaceOnUse" x="0" y="0" width="26" height="26">
<rect width="26" height="26" fill="#D9D9D9"/>
</mask>
<g mask="url(#mask0_692_653)">
<path d="M13.0001 23.8337C11.0862 23.8337 9.52436 23.5463 8.31464 22.9715C7.10492 22.3967 6.50006 21.661 6.50006 20.7642C6.50006 20.2286 6.73478 19.7381 7.20423 19.2927C7.67367 18.8473 8.32065 18.4892 9.14518 18.2184L9.67783 19.9517C9.38293 20.042 9.11209 20.1639 8.86533 20.3174C8.61856 20.4708 8.43198 20.6198 8.3056 20.7642C8.58847 21.1013 9.19333 21.3962 10.1202 21.649C11.047 21.9017 12.007 22.0281 13.0001 22.0281C13.9931 22.0281 14.9576 21.9017 15.8935 21.649C16.8294 21.3962 17.4387 21.1013 17.7216 20.7642C17.5952 20.6318 17.4116 20.4889 17.1709 20.3354C16.9302 20.1819 16.6563 20.054 16.3494 19.9517L16.864 18.2184C17.6885 18.4892 18.334 18.8473 18.8004 19.2927C19.2668 19.7381 19.5001 20.2286 19.5001 20.7642C19.5001 21.661 18.8952 22.3967 17.6855 22.9715C16.4758 23.5463 14.9139 23.8337 13.0001 23.8337ZM13.0001 17.5413C13.3624 16.8733 13.7449 16.2609 14.1475 15.7042C14.5501 15.1475 14.9471 14.6193 15.3383 14.1198C16.0906 13.1448 16.6864 12.2947 17.1258 11.5694C17.5651 10.8442 17.7848 9.90636 17.7848 8.75593C17.7848 7.42385 17.3201 6.2936 16.3906 5.36518C15.4612 4.43675 14.3297 3.97253 12.9962 3.97253C11.6627 3.97253 10.5325 4.43675 9.6056 5.36518C8.67875 6.2936 8.21533 7.42385 8.21533 8.75593C8.21533 9.90636 8.435 10.8442 8.87435 11.5694C9.31371 12.2947 9.90954 13.1448 10.6618 14.1198C11.0531 14.6193 11.45 15.1475 11.8526 15.7042C12.2552 16.2609 12.6377 16.8733 13.0001 17.5413ZM13.0001 20.8365C12.7894 20.8365 12.6028 20.7761 12.4403 20.6555C12.2778 20.5349 12.1605 20.3725 12.0882 20.1684C11.6609 18.8624 11.1252 17.776 10.481 16.9094C9.83673 16.0427 9.21093 15.2122 8.60354 14.4177C8.00168 13.6233 7.48559 12.7987 7.05527 11.9441C6.62495 11.0895 6.40979 10.0269 6.40979 8.75653C6.40979 6.91535 7.04666 5.3568 8.32041 4.08089C9.59416 2.80496 11.154 2.16699 13.0001 2.16699C14.8461 2.16699 16.406 2.80387 17.6797 4.07761C18.9535 5.35138 19.5903 6.91126 19.5903 8.75726C19.5903 10.0272 19.3774 11.0885 18.9516 11.9412C18.5259 12.7939 18.0075 13.6194 17.3966 14.4177C16.7947 15.2122 16.1703 16.0427 15.5233 16.9094C14.8763 17.776 14.3401 18.8608 13.9145 20.1635C13.8405 20.3654 13.7223 20.528 13.5598 20.6514C13.3973 20.7748 13.2107 20.8365 13.0001 20.8365ZM13.0038 10.6079C13.5129 10.6079 13.948 10.4261 14.3091 10.0625C14.6702 9.69892 14.8507 9.26258 14.8507 8.75352C14.8507 8.24445 14.6689 7.80935 14.3053 7.44824C13.9417 7.08715 13.5054 6.9066 12.9963 6.9066C12.4872 6.9066 12.0522 7.0884 11.691 7.45201C11.3299 7.81563 11.1494 8.25197 11.1494 8.76103C11.1494 9.2701 11.3312 9.7052 11.6948 10.0663C12.0584 10.4274 12.4948 10.6079 13.0038 10.6079Z" fill="#7E7E7E"/>
</g>
</svg>
