<svg width="20" height="20" viewBox="0 0 20 20" fill="none" xmlns="http://www.w3.org/2000/svg">
<path d="M13.0879 5.43747C13.0879 5.60934 13.0761 5.78122 13.0547 5.95114C13.0644 5.88278 13.0742 5.81247 13.082 5.74411C13.0351 6.08395 12.9453 6.41403 12.8144 6.73043C12.8398 6.66793 12.8672 6.60543 12.8925 6.54293C12.7617 6.85153 12.5937 7.14059 12.3886 7.40622L12.5117 7.24801C12.3086 7.50973 12.0722 7.74606 11.8105 7.94918L11.9687 7.82614C11.7031 8.02926 11.414 8.19918 11.1054 8.33004C11.1679 8.30465 11.2304 8.27731 11.2929 8.25192C10.9765 8.38278 10.6465 8.47262 10.3066 8.5195C10.375 8.50973 10.4453 8.49997 10.5136 8.49215C10.1718 8.53707 9.82809 8.53707 9.4863 8.49215C9.55466 8.50192 9.62497 8.51168 9.69333 8.5195C9.35348 8.47262 9.02341 8.38278 8.707 8.25192C8.7695 8.27731 8.832 8.30465 8.8945 8.33004C8.58591 8.19918 8.29684 8.03122 8.03122 7.82614L8.18942 7.94918C7.9277 7.74606 7.69138 7.50973 7.48825 7.24801L7.6113 7.40622C7.40817 7.14059 7.23825 6.85153 7.10739 6.54293C7.13278 6.60543 7.16013 6.66793 7.18552 6.73043C7.05466 6.41403 6.96481 6.08395 6.91794 5.74411C6.9277 5.81247 6.93747 5.88278 6.94528 5.95114C6.90036 5.60934 6.90036 5.26559 6.94528 4.92379C6.93552 4.99215 6.92575 5.06247 6.91794 5.13083C6.96481 4.79098 7.05466 4.4609 7.18552 4.1445C7.16013 4.207 7.13278 4.2695 7.10739 4.332C7.23825 4.0234 7.40622 3.73434 7.6113 3.46872L7.48825 3.62692C7.69138 3.3652 7.9277 3.12887 8.18942 2.92575L8.03122 3.04879C8.29684 2.84567 8.58591 2.67575 8.8945 2.54489C8.832 2.57028 8.7695 2.59762 8.707 2.62301C9.02341 2.49215 9.35348 2.40231 9.69333 2.35543C9.62497 2.3652 9.55466 2.37497 9.4863 2.38278C9.82809 2.33786 10.1718 2.33786 10.5136 2.38278C10.4453 2.37301 10.375 2.36325 10.3066 2.35543C10.6465 2.40231 10.9765 2.49215 11.2929 2.62301C11.2304 2.59762 11.1679 2.57028 11.1054 2.54489C11.414 2.67575 11.7031 2.84372 11.9687 3.04879L11.8105 2.92575C12.0722 3.12887 12.3086 3.3652 12.5117 3.62692L12.3886 3.46872C12.5918 3.73434 12.7617 4.0234 12.8925 4.332C12.8672 4.2695 12.8398 4.207 12.8144 4.1445C12.9453 4.4609 13.0351 4.79098 13.082 5.13083C13.0722 5.06247 13.0625 4.99215 13.0547 4.92379C13.0761 5.09372 13.0859 5.26559 13.0879 5.43747C13.0898 5.84567 13.4453 6.23825 13.8691 6.21872C14.291 6.19918 14.6523 5.87497 14.6504 5.43747C14.6465 4.50192 14.3652 3.54489 13.8144 2.78317C13.666 2.57809 13.5078 2.37692 13.332 2.19528C13.1543 2.01168 12.959 1.85348 12.7558 1.69918C12.3867 1.41793 11.9746 1.2109 11.5371 1.05075C9.77341 0.404262 7.64645 0.980434 6.45309 2.43356C6.28903 2.63278 6.13278 2.83981 5.99997 3.06247C5.86716 3.28317 5.76364 3.51754 5.66794 3.75583C5.48825 4.19723 5.39645 4.66598 5.35934 5.14059C5.28708 6.07028 5.52927 7.04098 6.01364 7.83786C6.48044 8.60739 7.18552 9.26754 8.00974 9.64059C8.25192 9.74997 8.49997 9.85153 8.75778 9.92379C9.01364 9.99411 9.27341 10.0332 9.53708 10.0644C10.0175 10.1211 10.5078 10.082 10.9824 9.98629C12.7851 9.61911 14.2949 8.06637 14.5742 6.24411C14.6152 5.97848 14.6465 5.71286 14.6465 5.44333C14.6484 5.03512 14.2851 4.64254 13.8652 4.66207C13.4433 4.67575 13.0879 4.99997 13.0879 5.43747ZM15.6797 17.6504H5.65817C5.21481 17.6504 4.77145 17.6543 4.32809 17.6504C4.27927 17.6504 4.23044 17.6465 4.18356 17.6406C4.25192 17.6504 4.32223 17.6601 4.39059 17.6679C4.31247 17.6562 4.23825 17.6347 4.16598 17.6054C4.22848 17.6308 4.29098 17.6582 4.35348 17.6836C4.27536 17.6504 4.20309 17.6074 4.13473 17.5547L4.29294 17.6777C4.23434 17.6289 4.17966 17.5761 4.13278 17.5175L4.25583 17.6757C4.20309 17.6074 4.16208 17.5351 4.12692 17.457C4.15231 17.5195 4.17966 17.582 4.20505 17.6445C4.17575 17.5722 4.15622 17.4961 4.14255 17.4199C4.15231 17.4882 4.16208 17.5586 4.16989 17.6269C4.13864 17.3906 4.16013 17.1406 4.16013 16.9023V16.0664C4.16013 15.8574 4.17184 15.6504 4.19919 15.4433C4.18942 15.5117 4.17966 15.582 4.17184 15.6504C4.22653 15.25 4.332 14.8574 4.4902 14.4843C4.46481 14.5468 4.43747 14.6093 4.41208 14.6718C4.56442 14.3164 4.75973 13.9824 4.99606 13.6757L4.87302 13.8339C5.10934 13.5312 5.38083 13.2578 5.68552 13.0215L5.52731 13.1445C5.83395 12.9082 6.16794 12.7129 6.52341 12.5605C6.46091 12.5859 6.39841 12.6132 6.33591 12.6386C6.70895 12.4824 7.09958 12.375 7.50192 12.3203C7.43356 12.33 7.36325 12.3398 7.29489 12.3476C7.58395 12.3105 7.87106 12.3086 8.16208 12.3086H11.7363C12.0586 12.3086 12.3789 12.3066 12.7011 12.3476C12.6328 12.3379 12.5625 12.3281 12.4941 12.3203C12.8945 12.375 13.2871 12.4804 13.6601 12.6386C13.5976 12.6132 13.5351 12.5859 13.4726 12.5605C13.8281 12.7129 14.1621 12.9082 14.4687 13.1445L14.3105 13.0215C14.6133 13.2578 14.8867 13.5293 15.123 13.8339L15 13.6757C15.2363 13.9824 15.4316 14.3164 15.584 14.6718C15.5586 14.6093 15.5312 14.5468 15.5058 14.4843C15.6621 14.8574 15.7695 15.248 15.8242 15.6504C15.8144 15.582 15.8047 15.5117 15.7968 15.4433C15.834 15.7382 15.8359 16.0312 15.8359 16.3281V17.2949C15.8359 17.4062 15.8398 17.5175 15.8261 17.6269C15.8359 17.5586 15.8457 17.4882 15.8535 17.4199C15.8418 17.498 15.8203 17.5722 15.791 17.6445C15.8164 17.582 15.8437 17.5195 15.8691 17.457C15.8359 17.5351 15.7929 17.6074 15.7402 17.6757L15.8633 17.5175C15.8144 17.5761 15.7617 17.6308 15.7031 17.6777L15.8613 17.5547C15.7929 17.6074 15.7207 17.6484 15.6425 17.6836C15.705 17.6582 15.7675 17.6308 15.83 17.6054C15.7578 17.6347 15.6816 17.6543 15.6054 17.6679C15.6738 17.6582 15.7441 17.6484 15.8125 17.6406C15.7695 17.6465 15.7246 17.6484 15.6797 17.6504C15.4785 17.6523 15.2715 17.7363 15.1269 17.8789C14.9922 18.0136 14.8886 18.2363 14.8984 18.4316C14.9179 18.8496 15.2422 19.2187 15.6797 19.2129C16.4394 19.2011 17.1074 18.705 17.33 17.9765C17.4179 17.6875 17.3984 17.3769 17.3984 17.08C17.3984 16.4004 17.4199 15.7265 17.3027 15.0527C17.1308 14.0664 16.6347 13.1386 15.955 12.4101C15.2754 11.6816 14.3613 11.1464 13.3945 10.9082C12.8398 10.7715 12.2812 10.75 11.7148 10.75H8.24997C7.66989 10.75 7.09372 10.7773 6.52927 10.9277C5.57028 11.1816 4.66794 11.7226 4.00192 12.457C3.33005 13.1972 2.84372 14.1269 2.68552 15.1191C2.58005 15.7851 2.60153 16.4531 2.60153 17.125C2.60153 17.4336 2.58395 17.7558 2.69528 18.0507C2.83981 18.4297 3.07028 18.7285 3.40817 18.9531C3.67184 19.1269 4.00583 19.2109 4.31833 19.2148C4.47067 19.2168 4.62302 19.2148 4.77536 19.2148H15.6816C16.0898 19.2148 16.4824 18.8554 16.4629 18.4336C16.4433 18.0078 16.1191 17.6504 15.6797 17.6504Z" fill="#7E7E7E"/>
</svg>
