<svg width="26" height="26" viewBox="0 0 26 26" fill="none" xmlns="http://www.w3.org/2000/svg">
<g clip-path="url(#clip0_683_391)">
<path d="M19.5 3.25H6.5C5.63805 3.25 4.8114 3.59241 4.2019 4.2019C3.59241 4.8114 3.25 5.63805 3.25 6.5V19.5C3.25 20.362 3.59241 21.1886 4.2019 21.7981C4.8114 22.4076 5.63805 22.75 6.5 22.75H19.5C20.362 22.75 21.1886 22.4076 21.7981 21.7981C22.4076 21.1886 22.75 20.362 22.75 19.5V6.5C22.75 5.63805 22.4076 4.8114 21.7981 4.2019C21.1886 3.59241 20.362 3.25 19.5 3.25ZM6.5 5.41667H19.5C19.7873 5.41667 20.0629 5.5308 20.266 5.73397C20.4692 5.93713 20.5833 6.21268 20.5833 6.5V15.5567L17.1167 12.5992C16.5795 12.1572 15.9056 11.9156 15.21 11.9156C14.5144 11.9156 13.8405 12.1572 13.3033 12.5992L5.41667 19.175V6.5C5.41667 6.21268 5.5308 5.93713 5.73397 5.73397C5.93713 5.5308 6.21268 5.41667 6.5 5.41667ZM19.5 20.5833H7.10667L14.69 14.2567C14.8357 14.1485 15.0123 14.0901 15.1938 14.0901C15.3752 14.0901 15.5518 14.1485 15.6975 14.2567L20.5833 18.4167V19.5C20.5833 19.7873 20.4692 20.0629 20.266 20.266C20.0629 20.4692 19.7873 20.5833 19.5 20.5833Z" fill="#296EE2"/>
<path d="M8.66663 10.8335C9.56409 10.8335 10.2916 10.106 10.2916 9.2085C10.2916 8.31103 9.56409 7.5835 8.66663 7.5835C7.76916 7.5835 7.04163 8.31103 7.04163 9.2085C7.04163 10.106 7.76916 10.8335 8.66663 10.8335Z" fill="#296EE2"/>
</g>
<defs>
<clipPath id="clip0_683_391">
<rect width="26" height="26" fill="white"/>
</clipPath>
</defs>
</svg>
