<svg width="24" height="24" viewBox="0 0 24 24" fill="none" xmlns="http://www.w3.org/2000/svg">
<mask id="mask0_692_659" style="mask-type:alpha" maskUnits="userSpaceOnUse" x="0" y="0" width="24" height="24">
<rect width="24" height="24" fill="#D9D9D9"/>
</mask>
<g mask="url(#mask0_692_659)">
<path d="M3 21V7.08333H7.08333V3H16.9167V11.1667H21V21H13.2167V16.9167H10.7833V21H3ZM4.66665 19.3334H7.08333V16.9167H4.66665V19.3334ZM4.66665 15.25H7.08333V12.8333H4.66665V15.25ZM4.66665 11.1667H7.08333V8.75H4.66665V11.1667ZM8.75 15.25H11.1667V12.8333H8.75V15.25ZM8.75 11.1667H11.1667V8.75H8.75V11.1667ZM8.75 7.08333H11.1667V4.66665H8.75V7.08333ZM12.8333 15.25H15.25V12.8333H12.8333V15.25ZM12.8333 11.1667H15.25V8.75H12.8333V11.1667ZM12.8333 7.08333H15.25V4.66665H12.8333V7.08333ZM16.9167 19.3334H19.3334V16.9167H16.9167V19.3334ZM16.9167 15.25H19.3334V12.8333H16.9167V15.25Z" fill="#7E7E7E"/>
</g>
</svg>
