<svg width="26" height="26" viewBox="0 0 26 26" fill="none" xmlns="http://www.w3.org/2000/svg">
<path d="M2.4375 3.25H5.6875V2.4375C5.6875 2.22201 5.7731 2.01535 5.92548 1.86298C6.07785 1.7106 6.28451 1.625 6.5 1.625C6.71549 1.625 6.92215 1.7106 7.07452 1.86298C7.2269 2.01535 7.3125 2.22201 7.3125 2.4375V3.25H18.6875V2.4375C18.6875 2.22201 18.7731 2.01535 18.9255 1.86298C19.0778 1.7106 19.2845 1.625 19.5 1.625C19.7155 1.625 19.9222 1.7106 20.0745 1.86298C20.2269 2.01535 20.3125 2.22201 20.3125 2.4375V3.25H23.5625C23.778 3.25 23.9847 3.3356 24.137 3.48798C24.2894 3.64035 24.375 3.84701 24.375 4.0625V8.9375C24.375 9.15299 24.2894 9.35965 24.137 9.51202C23.9847 9.6644 23.778 9.75 23.5625 9.75H22.75V23.5625C22.75 23.778 22.6644 23.9847 22.512 24.137C22.3597 24.2894 22.153 24.375 21.9375 24.375H4.0625C3.84701 24.375 3.64035 24.2894 3.48798 24.137C3.3356 23.9847 3.25 23.778 3.25 23.5625V9.75H2.4375C2.22201 9.75 2.01535 9.6644 1.86298 9.51202C1.7106 9.35965 1.625 9.15299 1.625 8.9375V4.0625C1.625 3.84701 1.7106 3.64035 1.86298 3.48798C2.01535 3.3356 2.22201 3.25 2.4375 3.25ZM4.875 22.75H21.125V9.75H4.875V22.75Z" fill="#7E7E7E"/>
<path d="M7.3125 19.5H8.125V14.625C8.125 14.4095 8.2106 14.2028 8.36298 14.0505C8.51535 13.8981 8.72201 13.8125 8.9375 13.8125H12.1875V12.1875C12.1875 11.972 12.2731 11.7653 12.4255 11.613C12.5778 11.4606 12.7845 11.375 13 11.375C13.2155 11.375 13.4222 11.4606 13.5745 11.613C13.7269 11.7653 13.8125 11.972 13.8125 12.1875V13.8125H17.0625C17.278 13.8125 17.4847 13.8981 17.637 14.0505C17.7894 14.2028 17.875 14.4095 17.875 14.625V19.5H18.6875C18.903 19.5 19.1097 19.5856 19.262 19.738C19.4144 19.8903 19.5 20.097 19.5 20.3125C19.5 20.528 19.4144 20.7347 19.262 20.887C19.1097 21.0394 18.903 21.125 18.6875 21.125H7.3125C7.09701 21.125 6.89035 21.0394 6.73798 20.887C6.5856 20.7347 6.5 20.528 6.5 20.3125C6.5 20.097 6.5856 19.8903 6.73798 19.738C6.89035 19.5856 7.09701 19.5 7.3125 19.5Z" fill="#7E7E7E"/>
</svg>
