<svg width="26" height="26" viewBox="0 0 26 26" fill="none" xmlns="http://www.w3.org/2000/svg">
<g clip-path="url(#clip0_692_702)">
<path d="M11.375 14.4219C11.5905 14.4219 11.7972 14.3363 11.9495 14.1839C12.1019 14.0315 12.1875 13.8249 12.1875 13.6094C12.1875 13.3939 12.1019 13.1872 11.9495 13.0349C11.7972 12.8825 11.5905 12.7969 11.375 12.7969C10.5781 12.8081 9.78841 12.6446 9.06148 12.3179C9.88633 11.4116 10.4847 10.3228 10.8076 9.14063H11.375C11.5905 9.14063 11.7972 9.05502 11.9495 8.90265C12.1019 8.75028 12.1875 8.54361 12.1875 8.32813C12.1875 8.11264 12.1019 7.90597 11.9495 7.7536C11.7972 7.60123 11.5905 7.51563 11.375 7.51563H8.53125V6.70313C8.53125 6.48764 8.44565 6.28097 8.29327 6.1286C8.1409 5.97623 7.93424 5.89062 7.71875 5.89062C7.50326 5.89062 7.2966 5.97623 7.14423 6.1286C6.99185 6.28097 6.90625 6.48764 6.90625 6.70313V7.51563H4.0625C3.84701 7.51563 3.64035 7.60123 3.48798 7.7536C3.3356 7.90597 3.25 8.11264 3.25 8.32813C3.25 8.54361 3.3356 8.75028 3.48798 8.90265C3.64035 9.05502 3.84701 9.14063 4.0625 9.14063H9.09837C8.80994 9.97786 8.34035 10.7412 7.72309 11.3761C7.31737 10.9665 6.97662 10.4972 6.71265 9.98468C6.66356 9.88981 6.59624 9.80555 6.51455 9.73673C6.43286 9.6679 6.3384 9.61586 6.23658 9.58358C6.13475 9.5513 6.02756 9.53942 5.92114 9.54862C5.81472 9.55782 5.71115 9.58791 5.61637 9.63718C5.52159 9.68644 5.43746 9.75392 5.36879 9.83574C5.30012 9.91756 5.24825 10.0121 5.21617 10.114C5.18408 10.2159 5.17241 10.3231 5.1818 10.4295C5.1912 10.5359 5.22149 10.6394 5.27094 10.7341C5.56631 11.3081 5.93427 11.8416 6.36578 12.3217C5.64207 12.6468 4.85579 12.809 4.0625 12.7969C3.84701 12.7969 3.64035 12.8825 3.48798 13.0349C3.3356 13.1872 3.25 13.3939 3.25 13.6094C3.25 13.8249 3.3356 14.0315 3.48798 14.1839C3.64035 14.3363 3.84701 14.4219 4.0625 14.4219C5.34495 14.4462 6.60814 14.1073 7.70623 13.4444C8.81136 14.1124 10.084 14.4515 11.375 14.4219Z" fill="#7E7E7E"/>
<path d="M25.1875 8.32812H17.0625C16.847 8.32812 16.6403 8.41373 16.488 8.5661C16.3356 8.71847 16.25 8.92514 16.25 9.14062C16.25 9.35611 16.3356 9.56278 16.488 9.71515C16.6403 9.86752 16.847 9.95312 17.0625 9.95312H24.375V21.7344H12.775L15.3304 17.2625C15.3959 17.1378 15.4325 17.0001 15.4375 16.8594V3.45312C15.4375 3.23764 15.3519 3.03098 15.1995 2.87861C15.0471 2.72624 14.8405 2.64064 14.625 2.64062H0.8125C0.597015 2.64064 0.390359 2.72624 0.237988 2.87861C0.0856167 3.03098 1.07734e-05 3.23764 0 3.45312L0 16.8594C1.07734e-05 17.0749 0.0856167 17.2815 0.237988 17.4339C0.390359 17.5863 0.597015 17.6719 0.8125 17.6719H10.5625V22.5469C10.5659 22.7614 10.6527 22.9662 10.8045 23.1179C10.9563 23.2696 11.1612 23.3562 11.3757 23.3594H25.1875C25.403 23.3594 25.6096 23.2738 25.762 23.1214C25.9144 22.969 26 22.7624 26 22.5469V9.14062C26 8.92514 25.9144 8.71848 25.762 8.56611C25.6096 8.41374 25.403 8.32814 25.1875 8.32812ZM1.625 4.26562H13.8125V16.0469H1.625V4.26562ZM13.225 17.6719L12.1875 19.4875V17.6719H13.225Z" fill="#7E7E7E"/>
<path d="M17.0625 16.4531V19.2969C17.0625 19.5124 17.1481 19.719 17.3005 19.8714C17.4528 20.0238 17.6595 20.1094 17.875 20.1094C18.0905 20.1094 18.2972 20.0238 18.4495 19.8714C18.6019 19.719 18.6875 19.5124 18.6875 19.2969V18.4844H21.125V19.2969C21.125 19.5124 21.2106 19.719 21.363 19.8714C21.5153 20.0238 21.722 20.1094 21.9375 20.1094C22.153 20.1094 22.3597 20.0238 22.512 19.8714C22.6644 19.719 22.75 19.5124 22.75 19.2969V16.4531C22.75 15.6989 22.4504 14.9756 21.9171 14.4423C21.3838 13.909 20.6605 13.6094 19.9062 13.6094C19.152 13.6094 18.4287 13.909 17.8954 14.4423C17.3621 14.9756 17.0625 15.6989 17.0625 16.4531ZM19.9062 15.2344C20.2294 15.2347 20.5392 15.3632 20.7676 15.5917C20.9961 15.8202 21.1246 16.13 21.125 16.4531V16.8594H18.6875V16.4531C18.6879 16.13 18.8164 15.8202 19.0449 15.5917C19.2733 15.3632 19.5831 15.2347 19.9062 15.2344Z" fill="#7E7E7E"/>
<path d="M19.9062 12.7969C20.355 12.7969 20.7188 12.4331 20.7188 11.9844C20.7188 11.5356 20.355 11.1719 19.9062 11.1719C19.4575 11.1719 19.0938 11.5356 19.0938 11.9844C19.0938 12.4331 19.4575 12.7969 19.9062 12.7969Z" fill="#7E7E7E"/>
</g>
<defs>
<clipPath id="clip0_692_702">
<rect width="26" height="26" fill="white"/>
</clipPath>
</defs>
</svg>
