<svg width="26" height="26" viewBox="0 0 26 26" fill="none" xmlns="http://www.w3.org/2000/svg">
<mask id="mask0_692_818" style="mask-type:alpha" maskUnits="userSpaceOnUse" x="0" y="0" width="26" height="26">
<rect width="26" height="26" fill="#D9D9D9"/>
</mask>
<g mask="url(#mask0_692_818)">
<path d="M14.0833 22.75C12.7472 22.75 11.4969 22.5017 10.3323 22.0052C9.16771 21.5087 8.14306 20.8271 7.25833 19.9604L8.80208 18.4167C9.48819 19.0847 10.2826 19.6128 11.1854 20.001C12.0882 20.3892 13.0542 20.5833 14.0833 20.5833C16.1778 20.5833 17.9653 19.8431 19.4458 18.3625C20.9264 16.8819 21.6667 15.0944 21.6667 13C21.6667 10.9056 20.9264 9.11806 19.4458 7.6375C17.9653 6.15694 16.1778 5.41667 14.0833 5.41667C11.9889 5.41667 10.2014 6.15694 8.72083 7.6375C7.24028 9.11806 6.5 10.9056 6.5 13V13.1896L8.47708 11.2125L10.0208 12.7292L5.41667 17.3333L0.8125 12.7292L2.35625 11.2125L4.33333 13.2167V13C4.33333 11.6458 4.59062 10.3774 5.10521 9.19479C5.61979 8.01215 6.31493 6.98299 7.19062 6.10729C8.06632 5.2316 9.09549 4.53646 10.2781 4.02188C11.4608 3.50729 12.7292 3.25 14.0833 3.25C15.4375 3.25 16.7059 3.50729 17.8885 4.02188C19.0712 4.53646 20.1003 5.2316 20.976 6.10729C21.8517 6.98299 22.5469 8.01215 23.0615 9.19479C23.576 10.3774 23.8333 11.6458 23.8333 13C23.8333 15.7083 22.8854 18.0104 20.9896 19.9062C19.0937 21.8021 16.7917 22.75 14.0833 22.75ZM11.9167 17.3333C11.6097 17.3333 11.3524 17.2295 11.1448 17.0219C10.9372 16.8142 10.8333 16.5569 10.8333 16.25V13C10.8333 12.6931 10.9372 12.4358 11.1448 12.2281C11.3524 12.0205 11.6097 11.9167 11.9167 11.9167V10.8333C11.9167 10.2375 12.1288 9.72743 12.5531 9.30313C12.9774 8.87882 13.4875 8.66667 14.0833 8.66667C14.6792 8.66667 15.1892 8.87882 15.6135 9.30313C16.0378 9.72743 16.25 10.2375 16.25 10.8333V11.9167C16.5569 11.9167 16.8142 12.0205 17.0219 12.2281C17.2295 12.4358 17.3333 12.6931 17.3333 13V16.25C17.3333 16.5569 17.2295 16.8142 17.0219 17.0219C16.8142 17.2295 16.5569 17.3333 16.25 17.3333H11.9167ZM13 11.9167H15.1667V10.8333C15.1667 10.5264 15.0628 10.2691 14.8552 10.0615C14.6476 9.85382 14.3903 9.75 14.0833 9.75C13.7764 9.75 13.5191 9.85382 13.3115 10.0615C13.1038 10.2691 13 10.5264 13 10.8333V11.9167Z" fill="#616161"/>
</g>
</svg>
