<svg width="26" height="26" viewBox="0 0 26 26" fill="none" xmlns="http://www.w3.org/2000/svg">
<path d="M22.1877 16.7772L20.4002 14.9897C19.8674 14.4611 19.1482 14.1631 18.3977 14.1599C17.6471 14.1567 16.9254 14.4486 16.3881 14.9726C16.1014 15.261 15.7232 15.4404 15.3185 15.48C14.9138 15.5196 14.508 15.4169 14.1708 15.1896C12.8401 14.3015 11.6969 13.1605 10.8062 11.8315C10.5829 11.4906 10.484 11.0831 10.526 10.6778C10.568 10.2724 10.7485 9.8939 11.037 9.60606C11.5562 9.06824 11.8444 8.34853 11.8397 7.60096C11.8349 6.85339 11.5378 6.13736 11.0118 5.60612L9.2243 3.81862C8.68914 3.2853 7.96442 2.98584 7.20889 2.98584C6.45337 2.98584 5.72864 3.2853 5.19349 3.81862L4.67917 4.33375C1.99792 7.015 2.19861 12.6521 7.77724 18.2275C11.141 21.5921 14.5267 23.0009 17.2721 23.0009C18.0803 23.0278 18.8857 22.8936 19.6415 22.6061C20.3973 22.3186 21.0883 21.8836 21.6742 21.3264L22.1894 20.8112C22.7237 20.2758 23.0236 19.5503 23.0233 18.7939C23.023 18.0375 22.7225 17.3122 22.1877 16.7772ZM21.0389 19.6624L20.5237 20.1775C18.4112 22.29 13.7483 21.9041 8.92449 17.0794C4.10067 12.2548 3.71392 7.58862 5.82642 5.47612L6.33749 4.96181C6.56759 4.73253 6.87918 4.6038 7.20402 4.6038C7.52885 4.6038 7.84044 4.73253 8.07055 4.96181L9.85805 6.74931C10.084 6.97637 10.2122 7.28273 10.2154 7.60302C10.2186 7.92332 10.0965 8.23217 9.87511 8.46368C9.32609 9.01621 8.98361 9.74062 8.90507 10.5156C8.82652 11.2905 9.01668 12.0689 9.44367 12.7204C10.4557 14.2348 11.7571 15.5342 13.273 16.544C13.9225 16.9711 14.6988 17.1623 15.4724 17.0859C16.2459 17.0094 16.9698 16.6699 17.5232 16.1239C17.7542 15.8999 18.064 15.7756 18.3858 15.7776C18.7076 15.7795 19.0157 15.9077 19.244 16.1345L21.0315 17.922C21.1468 18.0355 21.2384 18.1707 21.3011 18.3198C21.3639 18.4689 21.3965 18.6289 21.3972 18.7907C21.3979 18.9524 21.3666 19.1127 21.3051 19.2623C21.2436 19.4119 21.1531 19.5479 21.0389 19.6624Z" fill="#7E7E7E"/>
</svg>
