<svg width="30" height="30" viewBox="0 0 30 30" fill="none" xmlns="http://www.w3.org/2000/svg">
<path d="M22.6875 11.4308L22.3125 22.7811C22.2806 23.7532 21.8711 24.6746 21.1709 25.3497C20.4708 26.0248 19.5351 26.4005 18.5625 26.3971H11.4375C10.4655 26.4006 9.53039 26.0254 8.83035 25.3511C8.13031 24.6768 7.72039 23.7563 7.68749 22.7849L7.3125 11.4308C7.30429 11.1822 7.39519 10.9405 7.56521 10.7589C7.73522 10.5772 7.97042 10.4706 8.21906 10.4624C8.4677 10.4542 8.70941 10.5451 8.89103 10.7151C9.07265 10.8851 9.17929 11.1203 9.18749 11.369L9.56249 22.7221C9.58117 23.2067 9.78693 23.6653 10.1366 24.0015C10.4862 24.3377 10.9525 24.5253 11.4375 24.5249H18.5625C19.0481 24.5252 19.515 24.3371 19.8647 24.0001C20.2144 23.6632 20.4198 23.2037 20.4375 22.7183L20.8125 11.369C20.8207 11.1203 20.9273 10.8851 21.109 10.7151C21.2906 10.5451 21.5323 10.4542 21.7809 10.4624C22.0296 10.4706 22.2648 10.5772 22.4348 10.7589C22.6048 10.9405 22.6957 11.1822 22.6875 11.4308ZM23.9278 7.65364C23.9278 7.90228 23.829 8.14074 23.6532 8.31656C23.4774 8.49237 23.2389 8.59114 22.9903 8.59114H7.01062C6.76198 8.59114 6.52352 8.49237 6.34771 8.31656C6.17189 8.14074 6.07312 7.90228 6.07312 7.65364C6.07312 7.405 6.17189 7.16655 6.34771 6.99073C6.52352 6.81491 6.76198 6.71614 7.01062 6.71614H9.91687C10.2139 6.71694 10.5006 6.6072 10.7212 6.40826C10.9418 6.20933 11.0805 5.93544 11.1103 5.63989C11.1795 4.9466 11.5043 4.30389 12.0215 3.83699C12.5386 3.3701 13.2111 3.11245 13.9078 3.11427H16.0922C16.7889 3.11245 17.4614 3.3701 17.9785 3.83699C18.4957 4.30389 18.8205 4.9466 18.8897 5.63989C18.9195 5.93544 19.0582 6.20933 19.2788 6.40826C19.4994 6.6072 19.7861 6.71694 20.0831 6.71614H22.9894C23.238 6.71614 23.4765 6.81491 23.6523 6.99073C23.8281 7.16655 23.9269 7.405 23.9269 7.65364H23.9278ZM12.7378 6.71614H17.2641C17.1409 6.43465 17.0603 6.13638 17.025 5.83114C17.0018 5.60006 16.8936 5.38582 16.7214 5.22993C16.5493 5.07405 16.3254 4.98762 16.0931 4.98739H13.9087C13.6765 4.98762 13.4526 5.07405 13.2804 5.22993C13.1083 5.38582 13.0001 5.60006 12.9769 5.83114C12.9413 6.13643 12.8613 6.4347 12.7378 6.71614ZM13.6819 20.9202V12.9374C13.6819 12.6888 13.5831 12.4503 13.4073 12.2745C13.2315 12.0987 12.993 11.9999 12.7444 11.9999C12.4957 11.9999 12.2573 12.0987 12.0815 12.2745C11.9056 12.4503 11.8069 12.6888 11.8069 12.9374V20.924C11.8069 21.1726 11.9056 21.4111 12.0815 21.5869C12.2573 21.7627 12.4957 21.8615 12.7444 21.8615C12.993 21.8615 13.2315 21.7627 13.4073 21.5869C13.5831 21.4111 13.6819 21.1726 13.6819 20.924V20.9202ZM18.195 20.9202V12.9374C18.195 12.6888 18.0962 12.4503 17.9204 12.2745C17.7446 12.0987 17.5061 11.9999 17.2575 11.9999C17.0089 11.9999 16.7704 12.0987 16.5946 12.2745C16.4188 12.4503 16.32 12.6888 16.32 12.9374V20.924C16.32 21.1726 16.4188 21.4111 16.5946 21.5869C16.7704 21.7627 17.0089 21.8615 17.2575 21.8615C17.5061 21.8615 17.7446 21.7627 17.9204 21.5869C18.0962 21.4111 18.195 21.1726 18.195 20.924V20.9202Z" fill="#296EE2"/>
</svg>
