<svg width="22" height="22" viewBox="0 0 22 22" fill="none" xmlns="http://www.w3.org/2000/svg">
<path d="M21.6444 19.9089L17.4891 15.7658C18.8298 14.0578 19.5572 11.9486 19.5545 9.77726C19.5545 7.8435 18.9811 5.95317 17.9068 4.34531C16.8324 2.73745 15.3054 1.48427 13.5189 0.744254C11.7323 0.0042363 9.76641 -0.189386 7.86981 0.187872C5.97321 0.565129 4.23107 1.49632 2.8637 2.8637C1.49632 4.23107 0.565129 5.97321 0.187872 7.86981C-0.189386 9.76641 0.0042363 11.7323 0.744254 13.5189C1.48427 15.3054 2.73745 16.8324 4.34531 17.9068C5.95317 18.9811 7.8435 19.5545 9.77726 19.5545C11.9486 19.5572 14.0578 18.8298 15.7658 17.4891L19.9089 21.6444C20.0226 21.759 20.1577 21.8499 20.3067 21.9119C20.4556 21.974 20.6153 22.0059 20.7767 22.0059C20.938 22.0059 21.0978 21.974 21.2467 21.9119C21.3956 21.8499 21.5308 21.759 21.6444 21.6444C21.759 21.5308 21.8499 21.3956 21.9119 21.2467C21.974 21.0978 22.0059 20.938 22.0059 20.7767C22.0059 20.6153 21.974 20.4556 21.9119 20.3067C21.8499 20.1577 21.759 20.0226 21.6444 19.9089ZM2.44432 9.77726C2.44432 8.32694 2.87439 6.90919 3.68014 5.7033C4.4859 4.4974 5.63115 3.55752 6.97107 3.00251C8.31099 2.44749 9.78539 2.30228 11.2078 2.58522C12.6303 2.86816 13.9369 3.56656 14.9624 4.59209C15.988 5.61762 16.6864 6.92422 16.9693 8.34667C17.2522 9.76913 17.107 11.2435 16.552 12.5835C15.997 13.9234 15.0571 15.0686 13.8512 15.8744C12.6453 16.6801 11.2276 17.1102 9.77726 17.1102C7.83244 17.1102 5.96728 16.3376 4.59209 14.9624C3.21689 13.5872 2.44432 11.7221 2.44432 9.77726Z" fill="#BCBCBC"/>
</svg>
