<svg width="32" height="32" viewBox="0 0 32 32" fill="none" xmlns="http://www.w3.org/2000/svg">
<mask id="mask0_692_740" style="mask-type:alpha" maskUnits="userSpaceOnUse" x="0" y="0" width="32" height="32">
<rect width="32" height="32" fill="#D9D9D9"/>
</mask>
<g mask="url(#mask0_692_740)">
<path d="M14.1333 22.1332L23.5333 12.7332L21.6667 10.8665L14.1333 18.3998L10.3333 14.5998L8.46667 16.4665L14.1333 22.1332ZM16 29.3332C14.1556 29.3332 12.4222 28.9832 10.8 28.2832C9.17778 27.5832 7.76667 26.6332 6.56667 25.4332C5.36667 24.2332 4.41667 22.8221 3.71667 21.1998C3.01667 19.5776 2.66667 17.8443 2.66667 15.9998C2.66667 14.1554 3.01667 12.4221 3.71667 10.7998C4.41667 9.17761 5.36667 7.7665 6.56667 6.5665C7.76667 5.3665 9.17778 4.4165 10.8 3.7165C12.4222 3.0165 14.1556 2.6665 16 2.6665C17.8444 2.6665 19.5778 3.0165 21.2 3.7165C22.8222 4.4165 24.2333 5.3665 25.4333 6.5665C26.6333 7.7665 27.5833 9.17761 28.2833 10.7998C28.9833 12.4221 29.3333 14.1554 29.3333 15.9998C29.3333 17.8443 28.9833 19.5776 28.2833 21.1998C27.5833 22.8221 26.6333 24.2332 25.4333 25.4332C24.2333 26.6332 22.8222 27.5832 21.2 28.2832C19.5778 28.9832 17.8444 29.3332 16 29.3332ZM16 26.6665C18.9778 26.6665 21.5 25.6332 23.5667 23.5665C25.6333 21.4998 26.6667 18.9776 26.6667 15.9998C26.6667 13.0221 25.6333 10.4998 23.5667 8.43317C21.5 6.3665 18.9778 5.33317 16 5.33317C13.0222 5.33317 10.5 6.3665 8.43334 8.43317C6.36667 10.4998 5.33334 13.0221 5.33334 15.9998C5.33334 18.9776 6.36667 21.4998 8.43334 23.5665C10.5 25.6332 13.0222 26.6665 16 26.6665Z" fill="#7E7E7E"/>
</g>
</svg>
