<svg width="24" height="24" viewBox="0 0 24 24" fill="none" xmlns="http://www.w3.org/2000/svg">
<g clip-path="url(#clip0_692_714)">
<path d="M24 12.0001C24 17.6088 19.4609 22.174 13.8783 22.174C11.8174 22.174 9.83478 21.5479 8.13913 20.4001C7.66957 20.061 7.53913 19.4349 7.87826 18.9392C8.21739 18.4697 8.84348 18.3392 9.33913 18.6783C10.6696 19.5914 12.2609 20.087 13.8783 20.087C18.313 20.087 21.913 16.461 21.913 12.0001C21.913 7.53922 18.313 3.91313 13.8783 3.91313C9.54783 3.91313 6 7.38269 5.84348 11.7131L8.26957 9.26095C8.68696 8.84356 9.33913 8.84356 9.75652 9.26095C10.1739 9.67835 10.1739 10.3305 9.75652 10.7479L5.76522 14.7392C5.55652 14.9479 5.29565 15.0523 5.03478 15.0523C4.74783 15.0523 4.48696 14.9479 4.30435 14.7392L0.313043 10.7218C-0.104348 10.3044 -0.104348 9.65226 0.313043 9.23487C0.730435 8.81748 1.38261 8.81748 1.8 9.23487L3.78261 11.2436C4.14783 6.00008 8.53043 1.82617 13.8783 1.82617C19.4609 1.82617 24 6.39139 24 12.0001ZM13.8261 6.07835C13.2522 6.07835 12.7826 6.54791 12.7826 7.12182V12.0001C12.7826 12.287 12.913 12.5479 13.1217 12.7305L15.3652 14.974C15.5739 15.1827 15.8348 15.287 16.1217 15.287C16.3826 15.287 16.6696 15.1827 16.8522 14.974C17.2696 14.5566 17.2435 13.9044 16.8261 13.487L14.8696 11.5566V7.12182C14.8696 6.54791 14.4 6.07835 13.8261 6.07835Z" fill="#7E7E7E"/>
</g>
<defs>
<clipPath id="clip0_692_714">
<rect width="24" height="24" fill="white"/>
</clipPath>
</defs>
</svg>
