<svg width="32" height="32" viewBox="0 0 32 32" fill="none" xmlns="http://www.w3.org/2000/svg">
<mask id="mask0_692_751" style="mask-type:alpha" maskUnits="userSpaceOnUse" x="0" y="0" width="32" height="32">
<rect width="32" height="32" fill="#D9D9D9"/>
</mask>
<g mask="url(#mask0_692_751)">
<path d="M27.3 31.0665L23.3667 27.1332C22.3 27.8443 21.15 28.3887 19.9167 28.7665C18.6833 29.1443 17.3778 29.3332 16 29.3332C14.1556 29.3332 12.4222 28.9832 10.8 28.2832C9.17778 27.5832 7.76667 26.6332 6.56667 25.4332C5.36667 24.2332 4.41667 22.8221 3.71667 21.1998C3.01667 19.5776 2.66667 17.8443 2.66667 15.9998C2.66667 14.6221 2.85556 13.3165 3.23333 12.0832C3.61111 10.8498 4.15556 9.69984 4.86667 8.63317L0.9 4.6665L2.8 2.7665L29.2 29.1665L27.3 31.0665ZM16 26.6665C17 26.6665 17.95 26.5332 18.85 26.2665C19.75 25.9998 20.6 25.6332 21.4 25.1665L16.2333 19.9998L14.1333 22.1332L8.46667 16.4665L10.3333 14.5998L14.1333 18.3998L14.3667 18.1332L6.83333 10.5998C6.36667 11.3998 6 12.2498 5.73333 13.1498C5.46667 14.0498 5.33333 14.9998 5.33333 15.9998C5.33333 18.9554 6.37222 21.4721 8.45 23.5498C10.5278 25.6276 13.0444 26.6665 16 26.6665ZM27.1667 23.3332L25.2 21.3665C25.6667 20.5887 26.0278 19.7498 26.2833 18.8498C26.5389 17.9498 26.6667 16.9998 26.6667 15.9998C26.6667 13.0443 25.6278 10.5276 23.55 8.44984C21.4722 6.37206 18.9556 5.33317 16 5.33317C15 5.33317 14.05 5.46095 13.15 5.7165C12.25 5.97206 11.4111 6.33317 10.6333 6.79984L8.66667 4.83317C9.73333 4.14428 10.8833 3.61095 12.1167 3.23317C13.35 2.85539 14.6444 2.6665 16 2.6665C17.8444 2.6665 19.5778 3.0165 21.2 3.7165C22.8222 4.4165 24.2333 5.3665 25.4333 6.5665C26.6333 7.7665 27.5833 9.17762 28.2833 10.7998C28.9833 12.4221 29.3333 14.1554 29.3333 15.9998C29.3333 17.3554 29.1444 18.6498 28.7667 19.8832C28.3889 21.1165 27.8556 22.2665 27.1667 23.3332ZM20.0667 16.1998L18.2 14.3332L21.6667 10.8665L23.5333 12.7332L20.0667 16.1998Z" fill="#7E7E7E"/>
</g>
</svg>
