<svg width="24" height="24" viewBox="0 0 24 24" fill="none" xmlns="http://www.w3.org/2000/svg">
<path d="M20 14C20 12.9181 19.6491 11.8655 19 11V3H17V9.42C16.679 9.27811 16.3438 9.17084 16 9.1V3H14V9.1C13.6562 9.17084 13.321 9.27811 13 9.42V3H11V11C10.3509 11.8655 10 12.9181 10 14C10.001 14.9021 10.2461 15.7871 10.7093 16.5613C11.1725 17.3354 11.8364 17.9698 12.6309 18.3973C13.4253 18.8247 14.3205 19.0293 15.2218 18.9893C16.123 18.9493 16.9966 18.6662 17.75 18.17L21.29 21.71L22.7 20.3L19.16 16.76C19.7051 15.9425 19.9973 14.9826 20 14ZM15 17C14.4067 17 13.8266 16.8241 13.3333 16.4944C12.8399 16.1648 12.4554 15.6962 12.2284 15.1481C12.0013 14.5999 11.9419 13.9967 12.0576 13.4147C12.1734 12.8328 12.4591 12.2982 12.8787 11.8787C13.2982 11.4591 13.8328 11.1734 14.4147 11.0576C14.9967 10.9419 15.5999 11.0013 16.1481 11.2284C16.6962 11.4554 17.1648 11.8399 17.4944 12.3333C17.8241 12.8266 18 13.4067 18 14C18 14.7956 17.6839 15.5587 17.1213 16.1213C16.5587 16.6839 15.7956 17 15 17ZM2 3H4V14H2V3ZM5 3H7V12H5V3ZM8 3H10V12H8V3Z" fill="#7E7E7E"/>
</svg>
