<svg width="36" height="36" viewBox="0 0 36 36" fill="none" xmlns="http://www.w3.org/2000/svg">
<mask id="mask0_1925_7121" style="mask-type:alpha" maskUnits="userSpaceOnUse" x="0" y="0" width="36" height="36">
<rect width="36" height="36" fill="#D9D9D9"/>
</mask>
<g mask="url(#mask0_1925_7121)">
<path d="M25.2484 34.7598L19.3583 28.8697L21.6735 26.5545L25.2109 30.0918L31.9361 23.346L34.2514 25.7197L25.2484 34.7598ZM11.5819 26.3351L9.26663 24.0198L11.8414 21.4447L9.26663 18.8696L11.5819 16.5543L14.1566 19.1295L16.7318 16.5543L19.047 18.8696L16.4719 21.4447L19.047 24.0198L16.7318 26.3351L14.1566 23.76L11.5819 26.3351ZM7.21163 33.5932C6.30063 33.5932 5.52201 33.27 4.87576 32.6235C4.22926 31.9772 3.90601 31.1986 3.90601 30.2876V8.21134C3.90601 7.29659 4.22926 6.51472 4.87576 5.86572C5.52201 5.21647 6.30063 4.89184 7.21163 4.89184H9.12451V2.39209H12.1523V4.89184H23.847V2.39209H26.8748V4.89184H28.7876C29.7026 4.89184 30.4846 5.21647 31.1336 5.86572C31.7826 6.51472 32.1071 7.29659 32.1071 8.21134V19.6496L28.7876 23.0028V14.7495H7.21163V30.2876H17.223L20.5159 33.5932H7.21163ZM7.21163 12.2497H28.7876V8.21134H7.21163V12.2497Z" fill="#303348"/>
</g>
</svg>
