<svg width="36" height="36" viewBox="0 0 36 36" fill="none" xmlns="http://www.w3.org/2000/svg">
<mask id="mask0_1983_6656" style="mask-type:alpha" maskUnits="userSpaceOnUse" x="0" y="0" width="36" height="36">
<rect width="36" height="36" fill="#D9D9D9"/>
</mask>
<g mask="url(#mask0_1983_6656)">
<path d="M25.2486 34.7603L19.3585 28.8702L21.6738 26.555L25.2111 30.0923L31.9364 23.3465L34.2516 25.7202L25.2486 34.7603ZM11.5821 26.3356L9.26688 24.0203L11.8416 21.4452L9.26688 18.8701L11.5821 16.5548L14.1569 19.13L16.732 16.5548L19.0473 18.8701L16.4721 21.4452L19.0473 24.0203L16.732 26.3356L14.1569 23.7605L11.5821 26.3356ZM7.21188 33.5937C6.30088 33.5937 5.52225 33.2705 4.876 32.624C4.2295 31.9777 3.90625 31.1991 3.90625 30.2881V8.21183C3.90625 7.29708 4.2295 6.5152 4.876 5.8662C5.52225 5.21695 6.30088 4.89233 7.21188 4.89233H9.12475V2.39258H12.1525V4.89233H23.8473V2.39258H26.875V4.89233H28.7879C29.7029 4.89233 30.4849 5.21695 31.1339 5.8662C31.7829 6.5152 32.1074 7.29708 32.1074 8.21183V19.6501L28.7879 23.0033V14.75H7.21188V30.2881H17.2233L20.5161 33.5937H7.21188Z" fill="#1C1B1F"/>
</g>
</svg>
