<svg width="36" height="36" viewBox="0 0 36 36" fill="none" xmlns="http://www.w3.org/2000/svg">
<mask id="mask0_1983_6627" style="mask-type:alpha" maskUnits="userSpaceOnUse" x="0" y="0" width="36" height="36">
<rect width="36" height="36" fill="#D9D9D9"/>
</mask>
<g mask="url(#mask0_1983_6627)">
<path d="M10.75 27.4028H13.7939V24.2941H16.9026V21.2502H13.7939V18.1415H10.75V21.2502H7.64125V24.2941H10.75V27.4028ZM19.288 21.8108H28.3585V19.3475H19.288V21.8108ZM19.288 26.6641H25.3585V24.2078H19.288V26.6641ZM5.71188 33.5937C4.80088 33.5937 4.02225 33.2705 3.376 32.624C2.7295 31.9777 2.40625 31.1991 2.40625 30.2881V13.2121C2.40625 12.2971 2.7295 11.5151 3.376 10.8661C4.02225 10.2171 4.80088 9.89258 5.71188 9.89258H13.6563V5.31645C13.6563 4.4812 13.9319 3.78508 14.4831 3.22808C15.0346 2.67108 15.736 2.39258 16.5873 2.39258H19.4335C20.2688 2.39258 20.9649 2.67108 21.5219 3.22808C22.0789 3.78508 22.3574 4.4812 22.3574 5.31645V9.89258H30.2879C31.2029 9.89258 31.9849 10.2171 32.6339 10.8661C33.2829 11.5151 33.6074 12.2971 33.6074 13.2121V30.2881C33.6074 31.1991 33.2829 31.9777 32.6339 32.624C31.9849 33.2705 31.2029 33.5937 30.2879 33.5937H5.71188ZM16.7924 13.3261H19.2216V5.52833H16.7924V13.3261Z" fill="#1C1B1F"/>
</g>
</svg>
