<svg width="36" height="36" viewBox="0 0 36 36" fill="none" xmlns="http://www.w3.org/2000/svg">
<mask id="mask0_1925_7076" style="mask-type:alpha" maskUnits="userSpaceOnUse" x="0" y="0" width="36" height="36">
<rect width="36" height="36" fill="#D9D9D9"/>
</mask>
<g mask="url(#mask0_1925_7076)">
<path d="M10.751 27.4028H13.7949V24.2941H16.9036V21.2502H13.7949V18.1415H10.751V21.2502H7.64223V24.2941H10.751V27.4028ZM19.289 21.8108H28.3595V19.3475H19.289V21.8108ZM19.289 26.6641H25.3595V24.2078H19.289V26.6641ZM5.71285 33.5937C4.80185 33.5937 4.02323 33.2705 3.37698 32.624C2.73048 31.9777 2.40723 31.1991 2.40723 30.2881V13.2121C2.40723 12.2971 2.73048 11.5151 3.37698 10.8661C4.02323 10.2171 4.80185 9.89258 5.71285 9.89258H13.6572V5.31645C13.6572 4.4812 13.9329 3.78508 14.4841 3.22808C15.0356 2.67108 15.7405 2.39258 16.5987 2.39258H19.4244C20.2664 2.39258 20.9659 2.67108 21.5229 3.22808C22.0799 3.78508 22.3584 4.4812 22.3584 5.31645V9.89258H30.2889C31.2039 9.89258 31.9859 10.2171 32.6349 10.8661C33.2839 11.5151 33.6084 12.2971 33.6084 13.2121V30.2881C33.6084 31.1991 33.2839 31.9777 32.6349 32.624C31.9859 33.2705 31.2039 33.5937 30.2889 33.5937H5.71285ZM5.71285 30.2881H30.2889V13.2121H22.316V13.9621C22.2547 14.7321 21.9326 15.3412 21.3496 15.7895C20.7669 16.238 20.1251 16.4622 19.4244 16.4622H16.5916C15.8814 16.4622 15.2325 16.2356 14.645 15.7823C14.0572 15.3293 13.7375 14.7226 13.6857 13.9621V13.2121H5.71285V30.2881ZM16.7934 13.3261H19.2226V5.52833H16.7934V13.3261Z" fill="#303348"/>
</g>
</svg>
