<svg width="36" height="36" viewBox="0 0 36 36" fill="none" xmlns="http://www.w3.org/2000/svg">
<mask id="mask0_1983_6672" style="mask-type:alpha" maskUnits="userSpaceOnUse" x="0" y="0" width="36" height="36">
<rect width="36" height="36" fill="#D9D9D9"/>
</mask>
<g mask="url(#mask0_1983_6672)">
<path d="M18 14.9029C16.2352 14.9029 14.7367 14.2868 13.5045 13.0545C12.2725 11.8225 11.6565 10.3218 11.6565 8.55228C11.6565 6.78253 12.2725 5.28516 13.5045 4.06016C14.7367 2.83516 16.2352 2.22266 18 2.22266C19.7647 2.22266 21.2656 2.83516 22.5026 4.06016C23.7394 5.28516 24.3577 6.78253 24.3577 8.55228C24.3577 10.3218 23.7394 11.8225 22.5026 13.0545C21.2656 14.2868 19.7647 14.9029 18 14.9029ZM14.8864 30.7617C14.5431 30.7617 14.2517 30.6417 14.0122 30.4017C13.7725 30.1619 13.6526 29.8702 13.6526 29.5264C13.6526 29.1827 13.7725 28.8914 14.0122 28.6527C14.2517 28.4137 14.5431 28.2942 14.8864 28.2942H17.5886L16.3841 30.7617H14.8864ZM5.40637 33.8055V23.9592C5.40637 22.9902 5.659 22.1032 6.16425 21.2982C6.6695 20.4932 7.361 19.8862 8.23875 19.4772C9.7715 18.7584 11.3576 18.1913 12.9971 17.7758C14.6364 17.3605 16.3036 17.1529 17.9989 17.1529C18.8019 17.1529 19.5994 17.1987 20.3914 17.2902C21.1834 17.3819 21.9667 17.5307 22.7415 17.7364L19.1287 25.2499H14.8864C13.6996 25.2499 12.69 25.6667 11.8575 26.5002C11.025 27.3337 10.6087 28.3445 10.6087 29.5328C10.6087 30.721 11.025 31.7303 11.8575 32.5605C12.69 33.3905 13.6996 33.8055 14.8864 33.8055H5.40637ZM25.4032 33.8055V18.4898C25.7975 18.6408 26.1907 18.794 26.583 18.9495C26.9755 19.105 27.36 19.2785 27.7365 19.47C28.614 19.8745 29.3119 20.4824 29.8301 21.2937C30.3484 22.1052 30.6075 22.9937 30.6075 23.9592V30.4999C30.6075 31.4277 30.2871 32.2105 29.6464 32.8485C29.0056 33.4865 28.2195 33.8055 27.288 33.8055H25.4032Z" fill="#1C1B1F"/>
</g>
</svg>
