<svg width="36" height="36" viewBox="0 0 36 36" fill="none" xmlns="http://www.w3.org/2000/svg">
<mask id="mask0_1925_7307" style="mask-type:alpha" maskUnits="userSpaceOnUse" x="0" y="0" width="36" height="36">
<rect width="36" height="36" fill="#D9D9D9"/>
</mask>
<g mask="url(#mask0_1925_7307)">
<path d="M18.0028 14.9029C16.181 14.9029 14.6678 14.2992 13.463 13.0917C12.2583 11.8844 11.6559 10.3745 11.6559 8.56203C11.6559 6.73578 12.2581 5.22266 13.4626 4.02266C14.6671 2.82266 16.177 2.22266 17.9923 2.22266C19.8213 2.22266 21.3393 2.82266 22.5463 4.02266C23.7535 5.22266 24.3571 6.73228 24.3571 8.55153C24.3571 10.3708 23.7535 11.8842 22.5463 13.0917C21.3393 14.2992 19.8248 14.9029 18.0028 14.9029ZM17.9971 11.5973C18.8766 11.5973 19.6033 11.3079 20.177 10.7292C20.7505 10.1502 21.0373 9.42766 21.0373 8.56166C21.0373 7.68216 20.7513 6.95666 20.1793 6.38516C19.607 5.81391 18.8848 5.52828 18.0125 5.52828C17.14 5.52828 16.4134 5.81391 15.8326 6.38516C15.2519 6.95666 14.9615 7.67866 14.9615 8.55116C14.9615 9.42341 15.2509 10.1492 15.8296 10.7284C16.4084 11.3077 17.1309 11.5973 17.9971 11.5973ZM5.40576 33.8055V23.9592C5.40576 22.9249 5.66051 22.0235 6.17001 21.255C6.67951 20.4868 7.36889 19.8934 8.23814 19.4749C9.52239 18.8764 10.9945 18.3398 12.6545 17.865C14.3145 17.3903 16.0961 17.1529 17.9994 17.1529C19.9026 17.1529 21.6724 17.3862 23.3086 17.8527C24.9451 18.3192 26.4209 18.8583 27.7359 19.47C28.6261 19.885 29.3273 20.4784 29.8393 21.2502C30.351 22.0219 30.6069 22.9249 30.6069 23.9592V30.4999C30.6069 31.4109 30.2824 32.1897 29.6334 32.8362C28.9844 33.4824 28.2024 33.8055 27.2874 33.8055H14.8858C13.6933 33.8055 12.6821 33.3904 11.8524 32.5602C11.0229 31.7299 10.6081 30.718 10.6081 29.5245C10.6081 28.331 11.0229 27.3203 11.8524 26.4923C12.6821 25.664 13.6933 25.2499 14.8858 25.2499H19.1281L21.2086 20.7518C20.6886 20.6538 20.163 20.5828 19.6318 20.5388C19.1003 20.4945 18.5548 20.4724 17.9953 20.4724C16.2605 20.4724 14.7063 20.6687 13.3325 21.0612C11.959 21.4537 10.7718 21.8938 9.77076 22.3815C9.47026 22.5418 9.21851 22.776 9.01551 23.0843C8.81276 23.3923 8.71139 23.7145 8.71139 24.051V33.8055H5.40576ZM14.8858 30.7617H16.3835L17.588 28.2942H14.8858C14.5643 28.2942 14.2783 28.4197 14.0278 28.6707C13.7773 28.9219 13.652 29.211 13.652 29.538C13.652 29.8648 13.7773 30.1504 14.0278 30.3949C14.2783 30.6394 14.5643 30.7617 14.8858 30.7617ZM19.9603 30.4999H27.2874V24.051C27.2874 23.7145 27.1853 23.3932 26.981 23.0869C26.777 22.7807 26.5208 22.5464 26.2123 22.3842C25.9575 22.2454 25.6624 22.1138 25.3269 21.9893C24.9916 21.8645 24.621 21.7223 24.215 21.5625L19.9603 30.4999Z" fill="#303348"/>
</g>
</svg>
