<svg width="22" height="22" viewBox="0 0 22 22" fill="none" xmlns="http://www.w3.org/2000/svg">
<path d="M9.36078 21.3333C8.98301 21.3333 8.66634 21.2056 8.41078 20.95C8.15523 20.6944 8.02745 20.3778 8.02745 20V12L0.294118 2.13333C-0.0392157 1.68889 -0.0892157 1.22222 0.144118 0.733333C0.377451 0.244444 0.783006 0 1.36078 0H20.0275C20.6052 0 21.0108 0.244444 21.2441 0.733333C21.4775 1.22222 21.4275 1.68889 21.0941 2.13333L13.3608 12V20C13.3608 20.3778 13.233 20.6944 12.9775 20.95C12.7219 21.2056 12.4052 21.3333 12.0274 21.3333H9.36078ZM10.6941 11.0667L17.2941 2.66667H4.09412L10.6941 11.0667Z" fill="#303348"/>
</svg>
