<svg width="20" height="20" viewBox="0 0 20 20" fill="none" xmlns="http://www.w3.org/2000/svg">
<mask id="mask0_723_1271" style="mask-type:alpha" maskUnits="userSpaceOnUse" x="0" y="0" width="20" height="20">
<rect width="20" height="20" fill="#D9D9D9"/>
</mask>
<g mask="url(#mask0_723_1271)">
<path d="M10.0001 18.3332C8.8473 18.3332 7.76397 18.1144 6.75008 17.6769C5.73619 17.2394 4.85425 16.6457 4.10425 15.8957C3.35425 15.1457 2.7605 14.2637 2.323 13.2498C1.8855 12.2359 1.66675 11.1526 1.66675 9.99984C1.66675 8.84706 1.8855 7.76373 2.323 6.74984C2.7605 5.73595 3.35425 4.854 4.10425 4.104C4.85425 3.354 5.73619 2.76025 6.75008 2.32275C7.76397 1.88525 8.8473 1.6665 10.0001 1.6665C11.1529 1.6665 12.2362 1.88525 13.2501 2.32275C14.264 2.76025 15.1459 3.354 15.8959 4.104C16.6459 4.854 17.2397 5.73595 17.6772 6.74984C18.1147 7.76373 18.3334 8.84706 18.3334 9.99984C18.3334 10.3748 18.3126 10.7429 18.2709 11.104C18.2292 11.4651 18.1598 11.8193 18.0626 12.1665C17.8681 11.9443 17.6424 11.7568 17.3855 11.604C17.1286 11.4512 16.8473 11.3471 16.5417 11.2915C16.5834 11.0832 16.6147 10.8714 16.6355 10.6561C16.6563 10.4408 16.6667 10.2221 16.6667 9.99984C16.6667 8.13873 16.0209 6.56234 14.7292 5.27067C13.4376 3.979 11.8612 3.33317 10.0001 3.33317C8.13897 3.33317 6.56258 3.979 5.27092 5.27067C3.97925 6.56234 3.33341 8.13873 3.33341 9.99984C3.33341 11.8609 3.97925 13.4373 5.27092 14.729C6.56258 16.0207 8.13897 16.6665 10.0001 16.6665C10.7084 16.6665 11.3855 16.5623 12.0313 16.354C12.6772 16.1457 13.2709 15.854 13.8126 15.479C13.9792 15.7151 14.1841 15.9234 14.4272 16.104C14.6702 16.2846 14.9306 16.4234 15.2084 16.5207C14.5001 17.0901 13.7049 17.5346 12.823 17.854C11.9411 18.1735 11.0001 18.3332 10.0001 18.3332ZM16.0417 14.9998C15.7501 14.9998 15.5036 14.8991 15.3022 14.6978C15.1008 14.4964 15.0001 14.2498 15.0001 13.9582C15.0001 13.6665 15.1008 13.42 15.3022 13.2186C15.5036 13.0172 15.7501 12.9165 16.0417 12.9165C16.3334 12.9165 16.5799 13.0172 16.7813 13.2186C16.9827 13.42 17.0834 13.6665 17.0834 13.9582C17.0834 14.2498 16.9827 14.4964 16.7813 14.6978C16.5799 14.8991 16.3334 14.9998 16.0417 14.9998ZM12.7501 13.9165L9.16675 10.3332V5.83317H10.8334V9.6665L13.9167 12.7498L12.7501 13.9165Z" fill="#4291FA"/>
</g>
</svg>