<svg width="17" height="21" viewBox="0 0 17 21" fill="none" xmlns="http://www.w3.org/2000/svg">
<path d="M15.8191 7.50115L15.462 17.7386C15.4316 18.6154 15.0417 19.4464 14.3751 20.0553C13.7084 20.6642 12.8176 21.0031 11.8915 21H5.10759C4.18214 21.0031 3.29177 20.6647 2.62524 20.0565C1.95871 19.4483 1.56842 18.6181 1.5371 17.742L1.18005 7.50115C1.17224 7.27688 1.25879 7.05887 1.42066 6.89506C1.58254 6.73125 1.80648 6.63506 2.04321 6.62766C2.27995 6.62026 2.5101 6.70225 2.68302 6.8556C2.85594 7.00894 2.95748 7.22108 2.96529 7.44534L3.32234 17.6853C3.34012 18.1224 3.53603 18.5361 3.86892 18.8393C4.20181 19.1425 4.64578 19.3117 5.10759 19.3114H11.8915C12.3539 19.3116 12.7984 19.142 13.1314 18.838C13.4644 18.5341 13.6599 18.1197 13.6768 17.6819L14.0338 7.44534C14.0416 7.22108 14.1432 7.00894 14.3161 6.8556C14.489 6.70225 14.7192 6.62026 14.9559 6.62766C15.1926 6.63506 15.4166 6.73125 15.5784 6.89506C15.7403 7.05887 15.8269 7.27688 15.8191 7.50115ZM17 4.09431C17 4.31857 16.906 4.53364 16.7386 4.69222C16.5712 4.8508 16.3441 4.93988 16.1074 4.93988H0.892623C0.655885 4.93988 0.428842 4.8508 0.261443 4.69222C0.0940437 4.53364 0 4.31857 0 4.09431C0 3.87004 0.0940437 3.65497 0.261443 3.49639C0.428842 3.33781 0.655885 3.24873 0.892623 3.24873H3.65975C3.94258 3.24945 4.21557 3.15046 4.42561 2.97103C4.63564 2.79161 4.76769 2.54457 4.79606 2.278C4.86193 1.65268 5.1712 1.07299 5.6636 0.651872C6.156 0.230754 6.79627 -0.00162631 7.45965 8.56816e-06H9.53946C10.2028 -0.00162631 10.8431 0.230754 11.3355 0.651872C11.8279 1.07299 12.1372 1.65268 12.203 2.278C12.2314 2.54457 12.3635 2.79161 12.5735 2.97103C12.7835 3.15046 13.0565 3.24945 13.3394 3.24873H16.1065C16.3432 3.24873 16.5703 3.33781 16.7377 3.49639C16.9051 3.65497 17 3.87004 17 4.09431ZM6.34565 3.24873H10.6552C10.5379 2.99483 10.4612 2.72581 10.4276 2.4505C10.4055 2.24207 10.3025 2.04884 10.1386 1.90824C9.97466 1.76764 9.76148 1.68968 9.54035 1.68948H7.46054C7.23941 1.68968 7.02623 1.76764 6.86231 1.90824C6.69838 2.04884 6.59539 2.24207 6.57327 2.4505C6.53938 2.72585 6.46326 2.99488 6.34565 3.24873ZM7.24453 16.0601V8.85999C7.24453 8.63573 7.15048 8.42065 6.98308 8.26208C6.81568 8.1035 6.58864 8.01441 6.3519 8.01441C6.11516 8.01441 5.88812 8.1035 5.72072 8.26208C5.55332 8.42065 5.45928 8.63573 5.45928 8.85999V16.0635C5.45928 16.2877 5.55332 16.5028 5.72072 16.6614C5.88812 16.82 6.11516 16.9091 6.3519 16.9091C6.58864 16.9091 6.81568 16.82 6.98308 16.6614C7.15048 16.5028 7.24453 16.2877 7.24453 16.0635V16.0601ZM11.5416 16.0601V8.85999C11.5416 8.63573 11.4476 8.42065 11.2802 8.26208C11.1128 8.1035 10.8857 8.01441 10.649 8.01441C10.4123 8.01441 10.1852 8.1035 10.0178 8.26208C9.85041 8.42065 9.75637 8.63573 9.75637 8.85999V16.0635C9.75637 16.2877 9.85041 16.5028 10.0178 16.6614C10.1852 16.82 10.4123 16.9091 10.649 16.9091C10.8857 16.9091 11.1128 16.82 11.2802 16.6614C11.4476 16.5028 11.5416 16.2877 11.5416 16.0635V16.0601Z" fill="white"/>
</svg>
