<svg width="18" height="18" viewBox="0 0 18 18" fill="none" xmlns="http://www.w3.org/2000/svg">
<g clip-path="url(#clip0_1017_1785)">
<path d="M8.99951 1.12598C7.44199 1.12598 5.91944 1.58784 4.6244 2.45315C3.32936 3.31847 2.32 4.54838 1.72396 5.98734C1.12792 7.42631 0.971973 9.00971 1.27583 10.5373C1.57969 12.0649 2.32971 13.4681 3.43105 14.5694C4.53239 15.6708 5.93558 16.4208 7.46318 16.7247C8.99078 17.0285 10.5742 16.8726 12.0131 16.2765C13.4521 15.6805 14.682 14.6711 15.5473 13.3761C16.4126 12.0811 16.8745 10.5585 16.8745 9.00097C16.8745 7.96681 16.6708 6.94278 16.2751 5.98734C15.8793 5.0319 15.2992 4.16377 14.568 3.43251C13.8367 2.70125 12.9686 2.12118 12.0131 1.72543C11.0577 1.32967 10.0337 1.12598 8.99951 1.12598ZM8.99951 15.301C7.75349 15.301 6.53545 14.9315 5.49942 14.2392C4.46339 13.547 3.65591 12.5631 3.17907 11.4119C2.70224 10.2607 2.57748 8.99399 2.82057 7.77191C3.06365 6.54983 3.66367 5.42727 4.54474 4.5462C5.42581 3.66513 6.54837 3.06512 7.77045 2.82203C8.99253 2.57894 10.2592 2.7037 11.4104 3.18054C12.5616 3.65737 13.5455 4.46485 14.2378 5.50088C14.93 6.53691 15.2995 7.75495 15.2995 9.00097C15.2995 10.6718 14.6358 12.2743 13.4543 13.4557C12.2728 14.6372 10.6704 15.301 8.99951 15.301Z" fill="#303348"/>
<path d="M11.5308 8.15723H9.84326V6.46973C9.84326 6.24595 9.75437 6.03134 9.59613 5.87311C9.4379 5.71487 9.22329 5.62598 8.99951 5.62598C8.77574 5.62598 8.56112 5.71487 8.40289 5.87311C8.24466 6.03134 8.15576 6.24595 8.15576 6.46973V8.15723H6.46826C6.24449 8.15723 6.02987 8.24612 5.87164 8.40436C5.71341 8.56259 5.62451 8.7772 5.62451 9.00098C5.62451 9.22475 5.71341 9.43936 5.87164 9.5976C6.02987 9.75583 6.24449 9.84473 6.46826 9.84473H8.15576V11.5322C8.15576 11.756 8.24466 11.9706 8.40289 12.1288C8.56112 12.2871 8.77574 12.376 8.99951 12.376C9.22329 12.376 9.4379 12.2871 9.59613 12.1288C9.75437 11.9706 9.84326 11.756 9.84326 11.5322V9.84473H11.5308C11.7545 9.84473 11.9691 9.75583 12.1274 9.5976C12.2856 9.43936 12.3745 9.22475 12.3745 9.00098C12.3745 8.7772 12.2856 8.56259 12.1274 8.40436C11.9691 8.24612 11.7545 8.15723 11.5308 8.15723Z" fill="#303348"/>
</g>
<defs>
<clipPath id="clip0_1017_1785">
<rect width="18" height="18" fill="white"/>
</clipPath>
</defs>
</svg>
