<svg width="20" height="20" viewBox="0 0 20 20" fill="none" xmlns="http://www.w3.org/2000/svg">
<path d="M16.5836 10.5505C16.45 10.3984 16.3763 10.2029 16.3763 10.0005C16.3763 9.79806 16.45 9.60256 16.5836 9.45048L17.6502 8.25048C17.7678 8.11937 17.8408 7.9544 17.8587 7.77924C17.8767 7.60407 17.8387 7.42772 17.7502 7.27548L16.0836 4.39215C15.996 4.24008 15.8626 4.11955 15.7025 4.04772C15.5424 3.9759 15.3637 3.95645 15.1919 3.99215L13.6252 4.30882C13.4259 4.35001 13.2184 4.31681 13.0418 4.21548C12.8653 4.11416 12.7319 3.95172 12.6669 3.75882L12.1586 2.23382C12.1027 2.0683 11.9962 1.92454 11.8541 1.82285C11.712 1.72116 11.5416 1.6667 11.3669 1.66715H8.03357C7.85185 1.65766 7.67202 1.70792 7.52154 1.81024C7.37107 1.91257 7.25822 2.06133 7.20024 2.23382L6.73357 3.75882C6.66857 3.95172 6.53522 4.11416 6.35867 4.21548C6.18212 4.31681 5.97459 4.35001 5.77524 4.30882L4.16691 3.99215C4.00403 3.96913 3.83799 3.99483 3.6897 4.06602C3.5414 4.1372 3.41749 4.25067 3.33357 4.39215L1.66691 7.27548C1.57621 7.42602 1.53542 7.60139 1.55039 7.7765C1.56536 7.95162 1.63531 8.11752 1.75024 8.25048L2.80857 9.45048C2.94217 9.60256 3.01585 9.79806 3.01585 10.0005C3.01585 10.2029 2.94217 10.3984 2.80857 10.5505L1.75024 11.7505C1.63531 11.8834 1.56536 12.0493 1.55039 12.2245C1.53542 12.3996 1.57621 12.5749 1.66691 12.7255L3.33357 15.6088C3.42115 15.7609 3.5545 15.8814 3.71462 15.9532C3.87473 16.0251 4.05343 16.0445 4.22524 16.0088L5.79191 15.6921C5.99125 15.651 6.19878 15.6842 6.37533 15.7855C6.55188 15.8868 6.68524 16.0492 6.75024 16.2421L7.25857 17.7671C7.31656 17.9396 7.4294 18.0884 7.57988 18.1907C7.73035 18.293 7.91018 18.3433 8.09191 18.3338H11.4252C11.5999 18.3343 11.7704 18.2798 11.9124 18.1781C12.0545 18.0764 12.161 17.9327 12.2169 17.7671L12.7252 16.2421C12.7902 16.0492 12.9236 15.8868 13.1001 15.7855C13.2767 15.6842 13.4842 15.651 13.6836 15.6921L15.2502 16.0088C15.4221 16.0445 15.6008 16.0251 15.7609 15.9532C15.921 15.8814 16.0543 15.7609 16.1419 15.6088L17.8086 12.7255C17.8971 12.5732 17.935 12.3969 17.9171 12.2217C17.8991 12.0466 17.8261 11.8816 17.7086 11.7505L16.5836 10.5505ZM15.3419 11.6671L16.0086 12.4171L14.9419 14.2671L13.9586 14.0671C13.3584 13.9445 12.734 14.0464 12.2041 14.3537C11.6741 14.6609 11.2754 15.152 11.0836 15.7338L10.7669 16.6671H8.63357L8.33357 15.7171C8.14178 15.1354 7.74306 14.6442 7.21308 14.337C6.6831 14.0297 6.05876 13.9278 5.45857 14.0505L4.47524 14.2505L3.39191 12.4088L4.05857 11.6588C4.46853 11.2005 4.69518 10.6071 4.69518 9.99215C4.69518 9.37721 4.46853 8.78383 4.05857 8.32548L3.39191 7.57548L4.45857 5.74215L5.44191 5.94215C6.04209 6.06483 6.66643 5.96288 7.19641 5.65565C7.72639 5.34841 8.12512 4.85728 8.31691 4.27548L8.63357 3.33382H10.7669L11.0836 4.28382C11.2754 4.86561 11.6741 5.35675 12.2041 5.66398C12.734 5.97122 13.3584 6.07317 13.9586 5.95048L14.9419 5.75048L16.0086 7.60048L15.3419 8.35048C14.9365 8.80778 14.7127 9.39772 14.7127 10.0088C14.7127 10.6199 14.9365 11.2098 15.3419 11.6671ZM9.70024 6.66715C9.04097 6.66715 8.3965 6.86265 7.84834 7.22892C7.30017 7.59519 6.87293 8.11578 6.62064 8.72487C6.36835 9.33396 6.30234 10.0042 6.43095 10.6508C6.55957 11.2974 6.87704 11.8913 7.34322 12.3575C7.80939 12.8237 8.40333 13.1411 9.04994 13.2698C9.69654 13.3984 10.3668 13.3324 10.9759 13.0801C11.5849 12.8278 12.1055 12.4005 12.4718 11.8524C12.8381 11.3042 13.0336 10.6598 13.0336 10.0005C13.0336 9.11643 12.6824 8.26858 12.0573 7.64346C11.4321 7.01834 10.5843 6.66715 9.70024 6.66715ZM9.70024 11.6671C9.3706 11.6671 9.04837 11.5694 8.77429 11.3863C8.50021 11.2031 8.28659 10.9428 8.16044 10.6383C8.03429 10.3337 8.00129 9.99863 8.0656 9.67533C8.12991 9.35203 8.28864 9.05506 8.52173 8.82197C8.75481 8.58888 9.05179 8.43015 9.37509 8.36584C9.69839 8.30153 10.0335 8.33454 10.338 8.46068C10.6426 8.58683 10.9029 8.80045 11.086 9.07453C11.2692 9.34861 11.3669 9.67085 11.3669 10.0005C11.3669 10.4425 11.1913 10.8664 10.8787 11.179C10.5662 11.4916 10.1423 11.6671 9.70024 11.6671Z" fill="#303348"/>
</svg>
