<svg width="28" height="28" viewBox="0 0 28 28" fill="none" xmlns="http://www.w3.org/2000/svg">
<path d="M16.7183 23.3336H16.4733C15.9795 23.2846 15.5142 23.0795 15.1449 22.748C14.7757 22.4165 14.5217 21.9759 14.4199 21.4903L11.2933 7.00026L8.07325 14.4669C7.98217 14.6756 7.83202 14.8531 7.64129 14.9775C7.45057 15.1019 7.22762 15.1677 6.99992 15.1669H3.49992C3.1905 15.1669 2.89375 15.044 2.67496 14.8252C2.45617 14.6064 2.33325 14.3097 2.33325 14.0003C2.33325 13.6908 2.45617 13.3941 2.67496 13.1753C2.89375 12.9565 3.1905 12.8336 3.49992 12.8336H6.22992L9.15825 6.0786C9.35538 5.6253 9.69136 5.24632 10.1178 4.99629C10.5442 4.74626 11.039 4.63811 11.5308 4.68742C12.0226 4.73674 12.4861 4.94097 12.8544 5.27068C13.2227 5.60038 13.4767 6.03852 13.5799 6.52193L16.7066 21.0003L19.9266 13.5569C20.0141 13.3439 20.1627 13.1615 20.3537 13.0328C20.5448 12.904 20.7696 12.8347 20.9999 12.8336H24.4999C24.8093 12.8336 25.1061 12.9565 25.3249 13.1753C25.5437 13.3941 25.6666 13.6908 25.6666 14.0003C25.6666 14.3097 25.5437 14.6064 25.3249 14.8252C25.1061 15.044 24.8093 15.1669 24.4999 15.1669H21.7699L18.8416 21.9219C18.6628 22.3379 18.3668 22.6928 17.9898 22.9434C17.6128 23.1941 17.171 23.3297 16.7183 23.3336Z" fill="#616161"/>
</svg>
