<svg width="32" height="32" viewBox="0 0 32 32" fill="none" xmlns="http://www.w3.org/2000/svg">
<path d="M13.3333 10.6665H21.3333C21.687 10.6665 22.0261 10.526 22.2761 10.276C22.5262 10.0259 22.6667 9.68679 22.6667 9.33317C22.6667 8.97955 22.5262 8.64041 22.2761 8.39036C22.0261 8.14031 21.687 7.99984 21.3333 7.99984H13.3333C12.9797 7.99984 12.6406 8.14031 12.3905 8.39036C12.1405 8.64041 12 8.97955 12 9.33317C12 9.68679 12.1405 10.0259 12.3905 10.276C12.6406 10.526 12.9797 10.6665 13.3333 10.6665ZM10.6667 15.9998H21.3333C21.687 15.9998 22.0261 15.8594 22.2761 15.6093C22.5262 15.3593 22.6667 15.0201 22.6667 14.6665C22.6667 14.3129 22.5262 13.9737 22.2761 13.7237C22.0261 13.4736 21.687 13.3332 21.3333 13.3332H10.6667C10.313 13.3332 9.97391 13.4736 9.72386 13.7237C9.47381 13.9737 9.33333 14.3129 9.33333 14.6665C9.33333 15.0201 9.47381 15.3593 9.72386 15.6093C9.97391 15.8594 10.313 15.9998 10.6667 15.9998ZM10.6667 21.3332H21.3333C21.687 21.3332 22.0261 21.1927 22.2761 20.9426C22.5262 20.6926 22.6667 20.3535 22.6667 19.9998C22.6667 19.6462 22.5262 19.3071 22.2761 19.057C22.0261 18.807 21.687 18.6665 21.3333 18.6665H10.6667C10.313 18.6665 9.97391 18.807 9.72386 19.057C9.47381 19.3071 9.33333 19.6462 9.33333 19.9998C9.33333 20.3535 9.47381 20.6926 9.72386 20.9426C9.97391 21.1927 10.313 21.3332 10.6667 21.3332ZM26.6667 2.6665H5.33333C4.97971 2.6665 4.64057 2.80698 4.39052 3.05703C4.14048 3.30708 4 3.64622 4 3.99984V27.9998C4 28.2475 4.06895 28.4902 4.19913 28.7008C4.32931 28.9114 4.51557 29.0817 4.73705 29.1924C4.95852 29.3031 5.20646 29.35 5.45307 29.3278C5.69969 29.3055 5.93524 29.2151 6.13333 29.0665L8.89333 26.9998L11.64 29.0665C11.8708 29.2396 12.1515 29.3332 12.44 29.3332C12.7285 29.3332 13.0092 29.2396 13.24 29.0665L16 26.9998L18.76 29.0665C18.9908 29.2396 19.2715 29.3332 19.56 29.3332C19.8485 29.3332 20.1292 29.2396 20.36 29.0665L23.1067 26.9998L25.8667 29.0665C26.0657 29.2149 26.3022 29.3047 26.5496 29.3259C26.7969 29.3471 27.0453 29.2988 27.2667 29.1865C27.4866 29.0757 27.6715 28.9062 27.8009 28.6967C27.9303 28.4873 27.9993 28.2461 28 27.9998V3.99984C28 3.64622 27.8595 3.30708 27.6095 3.05703C27.3594 2.80698 27.0203 2.6665 26.6667 2.6665ZM25.3333 25.3332L23.9067 24.2665C23.6759 24.0934 23.3952 23.9998 23.1067 23.9998C22.8182 23.9998 22.5375 24.0934 22.3067 24.2665L19.56 26.3332L16.8 24.2665C16.5692 24.0934 16.2885 23.9998 16 23.9998C15.7115 23.9998 15.4308 24.0934 15.2 24.2665L12.44 26.3332L9.69333 24.2665C9.46254 24.0934 9.18183 23.9998 8.89333 23.9998C8.60484 23.9998 8.32413 24.0934 8.09333 24.2665L6.66667 25.3332V5.33317H25.3333V25.3332Z" fill="#585858"/>
</svg>
