<svg width="34" height="34" viewBox="0 0 34 34" fill="none" xmlns="http://www.w3.org/2000/svg">
<g clip-path="url(#clip0_578_476)">
<path d="M7.38232 26.6149C5.15821 24.3893 3.77459 21.4614 3.46718 18.3301C3.15978 15.1988 3.94762 12.0577 5.69647 9.44212C7.44532 6.82653 10.047 4.89824 13.0582 3.9858C16.0693 3.07335 19.3037 3.23321 22.2103 4.43813C25.1168 5.64305 27.5156 7.81848 28.9981 10.5938C30.4805 13.3691 30.9547 16.5725 30.3401 19.6582C29.7254 22.744 28.0598 25.5212 25.6271 27.5166C23.1944 29.512 20.145 30.6022 16.9986 30.6014C15.2125 30.6009 13.4439 30.2486 11.794 29.5646C10.144 28.8806 8.6449 27.8783 7.38232 26.6149ZM9.18715 9.18987C7.37602 10.9975 6.24781 13.3773 5.99482 15.9236C5.74183 18.4699 6.37972 21.0252 7.79976 23.1539C9.2198 25.2826 11.3341 26.8529 13.7823 27.5972C16.2305 28.3416 18.8611 28.2139 21.2257 27.2359C23.5903 26.2579 25.5425 24.4901 26.7497 22.2339C27.9569 19.9777 28.3443 17.3727 27.8458 14.8628C27.3474 12.353 25.9939 10.0937 24.0162 8.46998C22.0385 6.84627 19.5589 5.95867 17.0001 5.95845C14.0712 5.95739 11.2615 7.11796 9.18715 9.18562V9.18987ZM15.0847 23.1851V16.3851C15.1114 15.8959 15.3245 15.4355 15.6802 15.0986C16.036 14.7617 16.5073 14.5739 16.9972 14.5739C17.4872 14.5739 17.9585 14.7617 18.3142 15.0986C18.67 15.4355 18.8831 15.8959 18.9097 16.3851V23.1851C18.8831 23.6743 18.67 24.1348 18.3142 24.4717C17.9585 24.8086 17.4872 24.9963 16.9972 24.9963C16.5073 24.9963 16.036 24.8086 15.6802 24.4717C15.3245 24.1348 15.1114 23.6743 15.0847 23.1851ZM15.1088 10.8601C15.1177 10.4881 15.2362 10.127 15.4494 9.82204C15.6625 9.51704 15.9609 9.28171 16.3072 9.14549C16.6534 9.00927 17.0322 8.97822 17.396 9.05624C17.7599 9.13425 18.0926 9.31786 18.3526 9.58407C18.6126 9.85028 18.7882 10.1873 18.8576 10.5528C18.927 10.9184 18.887 11.2963 18.7426 11.6393C18.5982 11.9822 18.3559 12.275 18.0459 12.4809C17.736 12.6867 17.3722 12.7966 17.0001 12.7967C16.7484 12.7939 16.4998 12.7415 16.2685 12.6425C16.0371 12.5434 15.8276 12.3997 15.6519 12.2196C15.4762 12.0394 15.3378 11.8263 15.2446 11.5925C15.1514 11.3588 15.1053 11.1089 15.1088 10.8573V10.8601Z" fill="#585858"/>
</g>
<defs>
<clipPath id="clip0_578_476">
<rect width="34" height="34" fill="white"/>
</clipPath>
</defs>
</svg>
