<svg width="26" height="26" viewBox="0 0 26 26" fill="none" xmlns="http://www.w3.org/2000/svg">
<path d="M13 0.8125C11.6642 0.8125 10.5625 1.91262 10.5625 3.25H8.9375C8.72201 3.25 8.51535 3.3356 8.36298 3.48798C8.2106 3.64035 8.125 3.84701 8.125 4.0625V4.875H5.6875C5.47201 4.875 5.26535 4.9606 5.11298 5.11298C4.9606 5.26535 4.875 5.47201 4.875 5.6875V23.5625C4.875 23.778 4.9606 23.9847 5.11298 24.137C5.26535 24.2894 5.47201 24.375 5.6875 24.375H20.3125C20.528 24.375 20.7347 24.2894 20.887 24.137C21.0394 23.9847 21.125 23.778 21.125 23.5625V5.6875C21.125 5.47201 21.0394 5.26535 20.887 5.11298C20.7347 4.9606 20.528 4.875 20.3125 4.875H17.875V4.0625C17.875 3.84701 17.7894 3.64035 17.637 3.48798C17.4847 3.3356 17.278 3.25 17.0625 3.25H15.4375C15.4375 1.91262 14.3357 0.8125 13 0.8125ZM13 2.4375C13.4583 2.4375 13.8125 2.79175 13.8125 3.25V4.0625C13.8125 4.27799 13.8981 4.48465 14.0505 4.63702C14.2028 4.7894 14.4095 4.875 14.625 4.875H16.25V6.5H9.75V4.875H11.375C11.5905 4.875 11.7972 4.7894 11.9495 4.63702C12.1019 4.48465 12.1875 4.27799 12.1875 4.0625V3.25C12.1875 2.79175 12.5417 2.4375 13 2.4375ZM6.5 6.5H8.125V7.3125C8.125 7.52799 8.2106 7.73465 8.36298 7.88702C8.51535 8.0394 8.72201 8.125 8.9375 8.125H17.0625C17.278 8.125 17.4847 8.0394 17.637 7.88702C17.7894 7.73465 17.875 7.52799 17.875 7.3125V6.5H19.5V22.75H6.5V6.5ZM8.9375 9.75C8.72201 9.75 8.51535 9.8356 8.36298 9.98798C8.2106 10.1403 8.125 10.347 8.125 10.5625C8.125 10.778 8.2106 10.9847 8.36298 11.137C8.51535 11.2894 8.72201 11.375 8.9375 11.375C9.15299 11.375 9.35965 11.2894 9.51202 11.137C9.6644 10.9847 9.75 10.778 9.75 10.5625C9.75 10.347 9.6644 10.1403 9.51202 9.98798C9.35965 9.8356 9.15299 9.75 8.9375 9.75ZM11.375 9.75V11.375H17.875V9.75H11.375ZM8.9375 13C8.72201 13 8.51535 13.0856 8.36298 13.238C8.2106 13.3903 8.125 13.597 8.125 13.8125C8.125 14.028 8.2106 14.2347 8.36298 14.387C8.51535 14.5394 8.72201 14.625 8.9375 14.625C9.15299 14.625 9.35965 14.5394 9.51202 14.387C9.6644 14.2347 9.75 14.028 9.75 13.8125C9.75 13.597 9.6644 13.3903 9.51202 13.238C9.35965 13.0856 9.15299 13 8.9375 13ZM11.375 13V14.625H17.875V13H11.375ZM8.9375 16.25C8.72201 16.25 8.51535 16.3356 8.36298 16.488C8.2106 16.6403 8.125 16.847 8.125 17.0625C8.125 17.278 8.2106 17.4847 8.36298 17.637C8.51535 17.7894 8.72201 17.875 8.9375 17.875C9.15299 17.875 9.35965 17.7894 9.51202 17.637C9.6644 17.4847 9.75 17.278 9.75 17.0625C9.75 16.847 9.6644 16.6403 9.51202 16.488C9.35965 16.3356 9.15299 16.25 8.9375 16.25ZM11.375 16.25V17.875H17.875V16.25H11.375ZM8.9375 19.5C8.72201 19.5 8.51535 19.5856 8.36298 19.738C8.2106 19.8903 8.125 20.097 8.125 20.3125C8.125 20.528 8.2106 20.7347 8.36298 20.887C8.51535 21.0394 8.72201 21.125 8.9375 21.125C9.15299 21.125 9.35965 21.0394 9.51202 20.887C9.6644 20.7347 9.75 20.528 9.75 20.3125C9.75 20.097 9.6644 19.8903 9.51202 19.738C9.35965 19.5856 9.15299 19.5 8.9375 19.5ZM11.375 19.5V21.125H17.875V19.5H11.375Z" fill="#585858"/>
</svg>
