<svg width="24" height="24" viewBox="0 0 24 24" fill="none" xmlns="http://www.w3.org/2000/svg">
<mask id="mask0_1983_6931" style="mask-type:alpha" maskUnits="userSpaceOnUse" x="0" y="0" width="24" height="24">
<rect width="24" height="24" fill="#D9D9D9"/>
</mask>
<g mask="url(#mask0_1983_6931)">
<path d="M8 22.5L6 21V17H5C4.45 17 3.97917 16.8042 3.5875 16.4125C3.19583 16.0208 3 15.55 3 15V7.5C2.71667 7.5 2.47917 7.40417 2.2875 7.2125C2.09583 7.02083 2 6.78333 2 6.5C2 6.21667 2.09583 5.97917 2.2875 5.7875C2.47917 5.59583 2.71667 5.5 3 5.5H6V4H5.5C5.21667 4 4.97917 3.90417 4.7875 3.7125C4.59583 3.52083 4.5 3.28333 4.5 3C4.5 2.71667 4.59583 2.47917 4.7875 2.2875C4.97917 2.09583 5.21667 2 5.5 2H8.5C8.78333 2 9.02083 2.09583 9.2125 2.2875C9.40417 2.47917 9.5 2.71667 9.5 3C9.5 3.28333 9.40417 3.52083 9.2125 3.7125C9.02083 3.90417 8.78333 4 8.5 4H8V5.5H11C11.2833 5.5 11.5208 5.59583 11.7125 5.7875C11.9042 5.97917 12 6.21667 12 6.5C12 6.78333 11.9042 7.02083 11.7125 7.2125C11.5208 7.40417 11.2833 7.5 11 7.5V15C11 15.55 10.8042 16.0208 10.4125 16.4125C10.0208 16.8042 9.55 17 9 17H8V22.5ZM17 22C15.9 22 14.9583 21.6083 14.175 20.825C13.3917 20.0417 13 19.1 13 18V10C13 8.9 13.3917 7.95833 14.175 7.175C14.9583 6.39167 15.9 6 17 6C18.1 6 19.0417 6.39167 19.825 7.175C20.6083 7.95833 21 8.9 21 10V18C21 19.1 20.6083 20.0417 19.825 20.825C19.0417 21.6083 18.1 22 17 22ZM5 15H9V13.5H7.25C7.05 13.5 6.875 13.425 6.725 13.275C6.575 13.125 6.5 12.95 6.5 12.75C6.5 12.55 6.575 12.375 6.725 12.225C6.875 12.075 7.05 12 7.25 12H9V10.5H7.25C7.05 10.5 6.875 10.425 6.725 10.275C6.575 10.125 6.5 9.95 6.5 9.75C6.5 9.55 6.575 9.375 6.725 9.225C6.875 9.075 7.05 9 7.25 9H9V7.5H5V15ZM17 8C16.45 8 15.9792 8.19583 15.5875 8.5875C15.1958 8.97917 15 9.45 15 10H19C19 9.45 18.8042 8.97917 18.4125 8.5875C18.0208 8.19583 17.55 8 17 8ZM15 16H19V12H15V16ZM17 20C17.55 20 18.0208 19.8042 18.4125 19.4125C18.8042 19.0208 19 18.55 19 18H15C15 18.55 15.1958 19.0208 15.5875 19.4125C15.9792 19.8042 16.45 20 17 20Z" fill="#303348"/>
</g>
</svg>
