<svg width="30" height="30" viewBox="0 0 30 30" fill="none" xmlns="http://www.w3.org/2000/svg">
<path d="M25.0359 7.22344L23.5828 8.67656C23.1805 8.19923 22.7383 7.75701 22.2609 7.35469L23.7141 5.90156C23.8934 5.74798 24.1241 5.66772 24.36 5.67683C24.596 5.68595 24.8198 5.78376 24.9868 5.95072C25.1537 6.11769 25.2516 6.3415 25.2607 6.57745C25.2698 6.8134 25.1895 7.04409 25.0359 7.22344ZM17.8125 2.8125H12.1875C11.9389 2.8125 11.7004 2.91127 11.5246 3.08709C11.3488 3.2629 11.25 3.50136 11.25 3.75V5.33438C13.6756 4.47194 16.3244 4.47194 18.75 5.33438V3.75C18.75 3.50136 18.6512 3.2629 18.4754 3.08709C18.2996 2.91127 18.0611 2.8125 17.8125 2.8125Z" fill="#7E7E7E"/>
<path d="M23.5829 8.67659C22.5279 7.4281 21.2136 6.42448 19.7313 5.73557C18.2491 5.04666 16.6346 4.68902 15 4.68752C13.7221 4.68483 12.4533 4.90369 11.25 5.3344C8.98764 6.13293 7.03976 7.63381 5.69086 9.6179C4.34196 11.602 3.66268 13.9653 3.75223 16.3629C3.84177 18.7604 4.69544 21.0665 6.18858 22.9444C7.68171 24.8224 9.73611 26.1738 12.0518 26.8013C14.3674 27.4289 16.8231 27.2997 19.0601 26.4326C21.2972 25.5656 23.1984 24.006 24.4863 21.9818C25.7741 19.9575 26.3811 17.5746 26.2185 15.1809C26.056 12.7872 25.1325 10.5082 23.5829 8.67659ZM15 25.3125C13.1458 25.3125 11.3333 24.7627 9.79157 23.7326C8.24986 22.7024 7.04824 21.2382 6.33867 19.5252C5.6291 17.8121 5.44344 15.9271 5.80518 14.1086C6.16692 12.29 7.0598 10.6195 8.37092 9.3084C9.68203 7.99728 11.3525 7.1044 13.1711 6.74266C14.9896 6.38093 16.8746 6.56658 18.5877 7.27615C20.3008 7.98573 21.7649 9.18734 22.7951 10.7291C23.8252 12.2708 24.375 14.0833 24.375 15.9375C24.375 18.4239 23.3873 20.8085 21.6292 22.5667C19.871 24.3248 17.4864 25.3125 15 25.3125Z" fill="#7E7E7E"/>
<path d="M22.5 15.9375C22.5 16.1861 22.4012 16.4246 22.2254 16.6004C22.0496 16.7762 21.8111 16.875 21.5625 16.875H15C14.7514 16.875 14.5129 16.7762 14.3371 16.6004C14.1613 16.4246 14.0625 16.1861 14.0625 15.9375V9.375C14.0625 9.12636 14.1613 8.8879 14.3371 8.71209C14.5129 8.53627 14.7514 8.4375 15 8.4375C16.9891 8.4375 18.8968 9.22768 20.3033 10.6342C21.7098 12.0407 22.5 13.9484 22.5 15.9375Z" fill="#7E7E7E"/>
</svg>
