<svg width="30" height="30" viewBox="0 0 30 30" fill="none" xmlns="http://www.w3.org/2000/svg">
<mask id="mask0_289_444" style="mask-type:alpha" maskUnits="userSpaceOnUse" x="0" y="0" width="30" height="30">
<rect width="30" height="30" fill="#585858"/>
</mask>
<g mask="url(#mask0_289_444)">
<path d="M2.5 11.4583V5.83331C2.5 5.27081 2.70659 4.78297 3.11978 4.36978C3.53297 3.95659 4.02081 3.75 4.58331 3.75H25.4167C25.9792 3.75 26.467 3.95659 26.8802 4.36978C27.2934 4.78297 27.5 5.27081 27.5 5.83331V11.4583H25.4167V5.83331H4.58331V11.4583H2.5ZM4.58331 22.5C4.02081 22.5 3.53297 22.2934 3.11978 21.8802C2.70659 21.467 2.5 20.9792 2.5 20.4167V13.5417H4.58331V20.4167H25.4167V13.5417H27.5V20.4167C27.5 20.9792 27.2934 21.467 26.8802 21.8802C26.467 22.2934 25.9792 22.5 25.4167 22.5H4.58331ZM1.25 26.25V24.1667H28.75V26.25H1.25ZM2.5 13.5417V11.4583H10C10.1897 11.4583 10.3708 11.5069 10.5433 11.6042C10.7158 11.7014 10.8472 11.8403 10.9375 12.0208L12.5729 15.3229L16.5833 8.27084C16.6736 8.09722 16.8021 7.96701 16.9688 7.88022C17.1354 7.79341 17.3133 7.75 17.5025 7.75C17.6916 7.75 17.8722 7.79341 18.0442 7.88022C18.2161 7.96701 18.3472 8.10416 18.4375 8.29166L20.0011 11.4583H27.5V13.5417H19.3542C19.1632 13.5417 18.9809 13.4948 18.8073 13.401C18.6337 13.3073 18.5035 13.1667 18.4167 12.9792L17.4375 10.9896L13.4271 18C13.3407 18.1806 13.211 18.316 13.0381 18.4063C12.8653 18.4965 12.6837 18.5417 12.4936 18.5417C12.3034 18.5417 12.1233 18.4931 11.9531 18.3958C11.783 18.2986 11.6528 18.1597 11.5625 17.9792L9.34375 13.5417H2.5Z" fill="#585858"/>
</g>
</svg>
