<svg width="30" height="30" viewBox="0 0 30 30" fill="none" xmlns="http://www.w3.org/2000/svg">
<mask id="mask0_289_456" style="mask-type:alpha" maskUnits="userSpaceOnUse" x="0" y="0" width="30" height="30">
<rect width="30" height="30" fill="#585858"/>
</mask>
<g mask="url(#mask0_289_456)">
<path d="M5.83331 10.2083H24.1667V6.66666H5.83331V10.2083ZM5.83331 27.5C5.27081 27.5 4.78297 27.2934 4.36978 26.8802C3.95659 26.467 3.75 25.9792 3.75 25.4167V6.66666C3.75 6.10416 3.95659 5.61631 4.36978 5.20312C4.78297 4.78992 5.27081 4.58331 5.83331 4.58331H7.60416V2.5H9.79166V4.58331H20.2083V2.5H22.3958V4.58331H24.1667C24.7292 4.58331 25.217 4.78992 25.6302 5.20312C26.0434 5.61631 26.25 6.10416 26.25 6.66666V15.4271C25.9213 15.2634 25.5839 15.127 25.2378 15.0179C24.8918 14.9088 24.5347 14.8229 24.1667 14.7604V12.2917H5.83331V25.4167H15.1042C15.2361 25.8056 15.3907 26.1701 15.5678 26.5104C15.7448 26.8507 15.9549 27.1806 16.1979 27.5H5.83331ZM22.7292 28.75C21.0634 28.75 19.6435 28.163 18.4694 26.9889C17.2954 25.8148 16.7083 24.3949 16.7083 22.7292C16.7083 21.0634 17.2954 19.6435 18.4694 18.4694C19.6435 17.2954 21.0634 16.7083 22.7292 16.7083C24.3949 16.7083 25.8148 17.2954 26.9889 18.4694C28.163 19.6435 28.75 21.0634 28.75 22.7292C28.75 24.3949 28.163 25.8148 26.9889 26.9889C25.8148 28.163 24.3949 28.75 22.7292 28.75ZM24.6405 25.8229L25.5104 24.9479L23.1667 22.6042V19.1042H21.9375V23.0625L24.6405 25.8229Z" fill="#585858"/>
</g>
</svg>
