<svg width="30" height="30" viewBox="0 0 30 30" fill="none" xmlns="http://www.w3.org/2000/svg">
<mask id="mask0_289_432" style="mask-type:alpha" maskUnits="userSpaceOnUse" x="0" y="0" width="30" height="30">
<rect width="30" height="30" fill="#585858"/>
</mask>
<g mask="url(#mask0_289_432)">
<path d="M19.5417 23.6667C19.7917 23.6667 20.0104 23.5729 20.1979 23.3854C20.3854 23.1979 20.4792 22.9792 20.4792 22.7292C20.4792 22.4792 20.3854 22.2604 20.1979 22.0729C20.0104 21.8854 19.7917 21.7917 19.5417 21.7917C19.2917 21.7917 19.0729 21.8854 18.8854 22.0729C18.6979 22.2604 18.6042 22.4792 18.6042 22.7292C18.6042 22.9792 18.6979 23.1979 18.8854 23.3854C19.0729 23.5729 19.2917 23.6667 19.5417 23.6667ZM22.7708 23.6667C23.0208 23.6667 23.2396 23.5729 23.4271 23.3854C23.6146 23.1979 23.7083 22.9792 23.7083 22.7292C23.7083 22.4792 23.6146 22.2604 23.4271 22.0729C23.2396 21.8854 23.0208 21.7917 22.7708 21.7917C22.5208 21.7917 22.3021 21.8854 22.1146 22.0729C21.9271 22.2604 21.8333 22.4792 21.8333 22.7292C21.8333 22.9792 21.9271 23.1979 22.1146 23.3854C22.3021 23.5729 22.5208 23.6667 22.7708 23.6667ZM26 23.6667C26.25 23.6667 26.4688 23.5729 26.6562 23.3854C26.8438 23.1979 26.9375 22.9792 26.9375 22.7292C26.9375 22.4792 26.8438 22.2604 26.6562 22.0729C26.4688 21.8854 26.25 21.7917 26 21.7917C25.75 21.7917 25.5312 21.8854 25.3438 22.0729C25.1562 22.2604 25.0625 22.4792 25.0625 22.7292C25.0625 22.9792 25.1562 23.1979 25.3438 23.3854C25.5312 23.5729 25.75 23.6667 26 23.6667ZM5.83331 26.25C5.2604 26.25 4.76995 26.046 4.36197 25.638C3.95399 25.2301 3.75 24.7396 3.75 24.1667V5.83331C3.75 5.2604 3.95399 4.76995 4.36197 4.36197C4.76995 3.95399 5.2604 3.75 5.83331 3.75H24.1667C24.7396 3.75 25.2301 3.95399 25.638 4.36197C26.046 4.76995 26.25 5.2604 26.25 5.83331V15.4792C25.9236 15.3056 25.5833 15.1615 25.2292 15.0469C24.875 14.9323 24.5209 14.8438 24.1667 14.7813V5.83331H5.83331V24.1667H14.7917C14.8681 24.5417 14.9637 24.904 15.0786 25.2536C15.1935 25.6032 15.3305 25.9354 15.4896 26.25H5.83331ZM5.83331 24.1667V5.83331V14.7813V14.6667V24.1667ZM8.75 21.25H14.8438C14.9202 20.8819 15.0157 20.5243 15.1302 20.1771C15.2448 19.8299 15.3855 19.4931 15.5521 19.1667H8.75V21.25ZM8.75 16.0417H18.4584C18.8751 15.7361 19.3108 15.4827 19.7657 15.2813C20.2205 15.0799 20.7153 14.9271 21.25 14.8229V13.9583H8.75V16.0417ZM8.75 10.8333H21.25V8.75H8.75V10.8333ZM22.7604 28.7292C21.1076 28.7292 19.6962 28.1406 18.5261 26.9635C17.3559 25.7864 16.7708 24.3819 16.7708 22.75C16.7708 21.0842 17.3558 19.6643 18.5258 18.4903C19.6958 17.3162 21.1108 16.7292 22.7708 16.7292C24.4167 16.7292 25.8281 17.3162 27.0052 18.4903C28.1823 19.6643 28.7708 21.0842 28.7708 22.75C28.7708 24.3819 28.1823 25.7864 27.0052 26.9635C25.8281 28.1406 24.4132 28.7292 22.7604 28.7292Z" fill="#585858"/>
</g>
</svg>
