<svg width="30" height="30" viewBox="0 0 30 30" fill="none" xmlns="http://www.w3.org/2000/svg">
<mask id="mask0_289_450" style="mask-type:alpha" maskUnits="userSpaceOnUse" x="0" y="0" width="30" height="30">
<rect width="30" height="30" fill="#585858"/>
</mask>
<g mask="url(#mask0_289_450)">
<path d="M21.8333 25L17.5729 20.7292L19.0312 19.2708L21.8333 22.0521L27.2917 16.5938L28.75 18.0833L21.8333 25ZM2.5 27.5V4.58331C2.5 4.02081 2.70659 3.53297 3.11978 3.11978C3.53297 2.70659 4.02081 2.5 4.58331 2.5H25.4167C25.9792 2.5 26.467 2.70659 26.8802 3.11978C27.2934 3.53297 27.5 4.02081 27.5 4.58331V13.9583H25.4167V4.58331H4.58331V22.5521L6.60416 20.4167H15.2083V22.5H7.5L2.5 27.5Z" fill="#585858"/>
</g>
</svg>
