<svg width="30" height="30" viewBox="0 0 30 30" fill="none" xmlns="http://www.w3.org/2000/svg">
<mask id="mask0_289_438" style="mask-type:alpha" maskUnits="userSpaceOnUse" x="0" y="0" width="30" height="30">
<rect width="30" height="30" fill="#585858"/>
</mask>
<g mask="url(#mask0_289_438)">
<path d="M7.49994 17.5208H17.3541V15.4375H7.49994V17.5208ZM7.49994 13.5625H22.4999V11.4792H7.49994V13.5625ZM7.49994 9.60416H21.5624V9.5625C21.0138 9.35417 20.5121 9.07812 20.0572 8.73438C19.6024 8.39062 19.2013 7.98611 18.8541 7.52084H7.49994V9.60416ZM2.49994 27.5V4.58331C2.49994 4.02081 2.70653 3.53297 3.11972 3.11978C3.53291 2.70659 4.02075 2.5 4.58325 2.5H17.8958C17.8125 2.83333 17.7569 3.17708 17.7291 3.53125C17.7013 3.88542 17.7083 4.2361 17.7499 4.58331H4.58325V22.5521L6.6041 20.4167H25.4166V9.77084C25.8096 9.66668 26.1769 9.52605 26.5186 9.34897C26.8603 9.17189 27.1874 8.95834 27.4999 8.70834V20.4167C27.4999 20.9792 27.2933 21.467 26.8802 21.8802C26.467 22.2934 25.9791 22.5 25.4166 22.5H7.49994L2.49994 27.5ZM23.7475 7.52084C22.763 7.52084 21.927 7.17627 21.2395 6.48713C20.552 5.798 20.2083 4.9612 20.2083 3.97672C20.2083 2.99224 20.5528 2.15625 21.242 1.46875C21.9311 0.78125 22.7679 0.4375 23.7524 0.4375C24.7369 0.4375 25.5728 0.782072 26.2603 1.47122C26.9478 2.16034 27.2916 2.99715 27.2916 3.98162C27.2916 4.9661 26.947 5.80209 26.2579 6.48959C25.5688 7.17709 24.732 7.52084 23.7475 7.52084Z" fill="#585858"/>
</g>
</svg>
