<svg width="30" height="30" viewBox="0 0 30 30" fill="none" xmlns="http://www.w3.org/2000/svg">
<mask id="mask0_289_414" style="mask-type:alpha" maskUnits="userSpaceOnUse" x="0" y="0" width="30" height="30">
<rect width="30" height="30" fill="#585858"/>
</mask>
<g mask="url(#mask0_289_414)">
<path d="M20.1042 25.2083H21.3542V20.4167H20.1042V25.2083ZM20.7292 19.1875C20.8958 19.1875 21.0417 19.124 21.1667 18.9969C21.2917 18.8698 21.3542 18.7215 21.3542 18.5521C21.3542 18.3827 21.2917 18.2344 21.1667 18.1073C21.0417 17.9802 20.8958 17.9167 20.7292 17.9167C20.5486 17.9167 20.3993 17.9792 20.2812 18.1042C20.1632 18.2292 20.1042 18.377 20.1042 18.5476C20.1042 18.7183 20.1632 18.8676 20.2812 18.9956C20.3993 19.1235 20.5486 19.1875 20.7292 19.1875ZM5.83331 4.58331V13.2292V13.1458V25.4167V4.58331ZM8.72916 17.0833H13.73C13.9794 16.6875 14.2587 16.316 14.5677 15.9688C14.8767 15.6215 15.2118 15.2986 15.5729 15H8.72916V17.0833ZM8.72916 22.2917H12.5729C12.5243 21.9583 12.5035 21.6146 12.5104 21.2604C12.5174 20.9062 12.5451 20.5556 12.5938 20.2083H8.72916V22.2917ZM5.83331 27.5C5.27081 27.5 4.78297 27.2934 4.36978 26.8802C3.95659 26.467 3.75 25.9792 3.75 25.4167V4.58331C3.75 4.02081 3.95659 3.53297 4.36978 3.11978C4.78297 2.70659 5.27081 2.5 5.83331 2.5H16.6875L23.75 9.5625V13.75C23.4236 13.625 23.0868 13.5174 22.7396 13.4271C22.3924 13.3368 22.0347 13.2709 21.6667 13.2292V10.5417H15.6458V4.58331H5.83331V25.4167H13.5938C13.8229 25.8125 14.0778 26.1847 14.3585 26.5331C14.6391 26.8815 14.9537 27.2038 15.3021 27.5H5.83331ZM20.7292 15.2292C22.4237 15.2292 23.8682 15.8264 25.0626 17.0208C26.257 18.2151 26.8542 19.6596 26.8542 21.3542C26.8542 23.0487 26.257 24.4932 25.0626 25.6876C23.8682 26.882 22.4237 27.4792 20.7292 27.4792C19.0346 27.4792 17.5901 26.882 16.3957 25.6876C15.2013 24.4932 14.6042 23.0487 14.6042 21.3542C14.6042 19.6596 15.2013 18.2151 16.3957 17.0208C17.5901 15.8264 19.0346 15.2292 20.7292 15.2292Z" fill="#585858"/>
</g>
</svg>
