<svg width="30" height="30" viewBox="0 0 30 30" fill="none" xmlns="http://www.w3.org/2000/svg">
<mask id="mask0_289_408" style="mask-type:alpha" maskUnits="userSpaceOnUse" x="0" y="0" width="30" height="30">
<rect width="30" height="30" fill="#585858"/>
</mask>
<g mask="url(#mask0_289_408)">
<path d="M21.25 19.7917C20.2083 19.7917 19.3229 19.4271 18.5938 18.6979C17.8646 17.9687 17.5 17.0833 17.5 16.0417C17.5 15 17.8646 14.1146 18.5938 13.3854C19.3229 12.6562 20.2083 12.2917 21.25 12.2917C22.2917 12.2917 23.1771 12.6562 23.9063 13.3854C24.6354 14.1146 25 15 25 16.0417C25 17.0833 24.6354 17.9687 23.9063 18.6979C23.1771 19.4271 22.2917 19.7917 21.25 19.7917ZM21.25 17.7083C21.7222 17.7083 22.1181 17.5486 22.4375 17.2292C22.757 16.9097 22.9167 16.5139 22.9167 16.0417C22.9167 15.5694 22.757 15.1736 22.4375 14.8542C22.1181 14.5347 21.7222 14.375 21.25 14.375C20.7778 14.375 20.3819 14.5347 20.0625 14.8542C19.743 15.1736 19.5833 15.5694 19.5833 16.0417C19.5833 16.5139 19.743 16.9097 20.0625 17.2292C20.3819 17.5486 20.7778 17.7083 21.25 17.7083ZM13.75 28.5417V24.9167C13.75 24.4792 13.8542 24.0677 14.0625 23.6823C14.2708 23.2969 14.5625 22.9896 14.9375 22.7604C15.5486 22.3924 16.1858 22.0781 16.849 21.8177C17.5122 21.5573 18.1944 21.3507 18.8958 21.1979L21.25 24.1875L23.6042 21.1979C24.3056 21.3507 24.9826 21.5573 25.6354 21.8177C26.2882 22.0781 26.9201 22.3924 27.5313 22.7604C27.9063 22.9896 28.2031 23.2969 28.4219 23.6823C28.6406 24.0677 28.75 24.4792 28.75 24.9167V28.5417H13.75ZM15.8229 26.4583H20.375L18.1042 23.5625C17.7014 23.7083 17.309 23.875 16.9271 24.0625C16.5451 24.25 16.1771 24.4514 15.8229 24.6667V26.4583ZM22.125 26.4583H26.6667V24.6667C26.3195 24.4444 25.9583 24.2413 25.5833 24.0573C25.2083 23.8732 24.8195 23.7083 24.4167 23.5625L22.125 26.4583ZM5.83331 26.25C5.2604 26.25 4.76995 26.046 4.36197 25.638C3.95399 25.2301 3.75 24.7396 3.75 24.1667V5.83331C3.75 5.2604 3.95399 4.76995 4.36197 4.36197C4.76995 3.95399 5.2604 3.75 5.83331 3.75H24.1667C24.7396 3.75 25.2301 3.95399 25.638 4.36197C26.046 4.76995 26.25 5.2604 26.25 5.83331V13.0625C25.9861 12.6459 25.684 12.257 25.3438 11.8958C25.0035 11.5347 24.6111 11.2431 24.1667 11.0208V5.83331H5.83331V24.1667H11.7292C11.7084 24.2917 11.6927 24.4167 11.6823 24.5417C11.6719 24.6667 11.6667 24.7917 11.6667 24.9167V26.25H5.83331ZM8.75 10.8333H18.7709C19.1459 10.625 19.5441 10.4688 19.9654 10.3646C20.3868 10.2604 20.815 10.2083 21.25 10.2083V8.75H8.75V10.8333ZM8.75 16.0417H15.4167C15.4167 15.6875 15.4497 15.3333 15.5156 14.9792C15.5816 14.625 15.6771 14.2847 15.8021 13.9583H8.75V16.0417ZM8.75 21.25H13.4792C13.7917 21.0069 14.1233 20.8021 14.474 20.6354C14.8247 20.4687 15.1841 20.309 15.5521 20.1562V19.1667H8.75V21.25ZM5.83331 24.1667V5.83331V11.0104V10.2083V24.1667Z" fill="#585858"/>
</g>
</svg>
