<svg width="30" height="30" viewBox="0 0 30 30" fill="none" xmlns="http://www.w3.org/2000/svg">
<mask id="mask0_289_396" style="mask-type:alpha" maskUnits="userSpaceOnUse" x="0" y="0" width="30" height="30">
<rect width="30" height="30" fill="#585858"/>
</mask>
<g mask="url(#mask0_289_396)">
<path d="M24.8646 25.6979L25.7396 24.8229L23.3958 22.4792V18.9792H22.1458V22.9792L24.8646 25.6979ZM5.83331 26.25C5.2604 26.25 4.76995 26.046 4.36197 25.638C3.95399 25.2301 3.75 24.7396 3.75 24.1667V5.83331C3.75 5.2604 3.95399 4.76995 4.36197 4.36197C4.76995 3.95399 5.2604 3.75 5.83331 3.75H24.1667C24.7396 3.75 25.2301 3.95399 25.638 4.36197C26.046 4.76995 26.25 5.2604 26.25 5.83331V15.4792C25.9236 15.3056 25.5833 15.1615 25.2292 15.0469C24.875 14.9323 24.5209 14.8438 24.1667 14.7813V5.83331H5.83331V24.1667H14.7917C14.8681 24.5417 14.9637 24.904 15.0786 25.2536C15.1935 25.6032 15.3305 25.9354 15.4896 26.25H5.83331ZM5.83331 24.1667V5.83331V14.7813V14.6667V24.1667ZM8.75 21.25H14.8438C14.9202 20.8819 15.0157 20.5243 15.1302 20.1771C15.2448 19.8299 15.3855 19.4931 15.5521 19.1667H8.75V21.25ZM8.75 16.0417H18.4584C18.8751 15.7361 19.3108 15.4827 19.7657 15.2813C20.2205 15.0799 20.7153 14.9271 21.25 14.8229V13.9583H8.75V16.0417ZM8.75 10.8333H21.25V8.75H8.75V10.8333ZM22.7604 28.7292C21.1076 28.7292 19.6962 28.1406 18.5261 26.9635C17.3559 25.7864 16.7708 24.3819 16.7708 22.75C16.7708 21.0842 17.3558 19.6643 18.5258 18.4903C19.6958 17.3162 21.1108 16.7292 22.7708 16.7292C24.4167 16.7292 25.8281 17.3162 27.0052 18.4903C28.1823 19.6643 28.7708 21.0842 28.7708 22.75C28.7708 24.3819 28.1823 25.7864 27.0052 26.9635C25.8281 28.1406 24.4132 28.7292 22.7604 28.7292Z" fill="#585858"/>
</g>
</svg>
