<svg width="30" height="30" viewBox="0 0 30 30" fill="none" xmlns="http://www.w3.org/2000/svg">
<mask id="mask0_289_426" style="mask-type:alpha" maskUnits="userSpaceOnUse" x="0" y="0" width="30" height="30">
<rect width="30" height="30" fill="#585858"/>
</mask>
<g mask="url(#mask0_289_426)">
<path d="M21.5208 26.1042L23.1042 24.5L20.5 21.8958L18.8958 23.4792C18.5208 23.8542 18.3368 24.2917 18.3438 24.7917C18.3507 25.2917 18.5347 25.7292 18.8958 26.1042C19.2708 26.4653 19.7083 26.6493 20.2083 26.6562C20.7083 26.6632 21.1458 26.4792 21.5208 26.1042ZM24.5417 23.0625L26.1458 21.4792C26.5208 21.1042 26.7049 20.6667 26.6979 20.1667C26.691 19.6667 26.5 19.2292 26.125 18.8542C25.75 18.4792 25.3175 18.2917 24.8275 18.2917C24.3375 18.2917 23.9019 18.4792 23.5208 18.8542L21.9375 20.4583L24.5417 23.0625ZM22.9896 27.5729C22.2188 28.3437 21.2917 28.7292 20.2083 28.7292C19.125 28.7292 18.1979 28.3437 17.4271 27.5729C16.6563 26.8021 16.2708 25.875 16.2708 24.7917C16.2708 23.7083 16.6563 22.7812 17.4271 22.0104L22.0521 17.3854C22.8229 16.6146 23.75 16.2292 24.8333 16.2292C25.9167 16.2292 26.8438 16.6146 27.6146 17.3854C28.3854 18.1562 28.7708 19.0833 28.7708 20.1667C28.7708 21.25 28.3854 22.1771 27.6146 22.9479L22.9896 27.5729ZM5.83331 26.25C5.2604 26.25 4.76995 26.046 4.36197 25.638C3.95399 25.2301 3.75 24.7396 3.75 24.1667V5.83331C3.75 5.2604 3.95399 4.76995 4.36197 4.36197C4.76995 3.95399 5.2604 3.75 5.83331 3.75H11.8542C12.0139 3.0139 12.3872 2.4132 12.974 1.94791C13.5608 1.48264 14.2361 1.25 15 1.25C15.7639 1.25 16.4392 1.48264 17.026 1.94791C17.6128 2.4132 17.9861 3.0139 18.1458 3.75H24.1667C24.7396 3.75 25.2301 3.95399 25.638 4.36197C26.046 4.76995 26.25 5.2604 26.25 5.83331V14.3021C25.9028 14.2118 25.5556 14.1597 25.2083 14.1458C24.8611 14.1319 24.5139 14.1493 24.1667 14.1979V5.83331H5.83331V24.1667H14.2188C14.184 24.5139 14.1771 24.8611 14.1979 25.2083C14.2188 25.5556 14.2743 25.9028 14.3646 26.25H5.83331ZM15 5.16666C15.2847 5.16666 15.5295 5.06423 15.7344 4.85938C15.9392 4.6545 16.0417 4.40971 16.0417 4.125C16.0417 3.84027 15.9392 3.59548 15.7344 3.39062C15.5295 3.18575 15.2847 3.08331 15 3.08331C14.7153 3.08331 14.4705 3.18575 14.2656 3.39062C14.0608 3.59548 13.9583 3.84027 13.9583 4.125C13.9583 4.40971 14.0608 4.6545 14.2656 4.85938C14.4705 5.06423 14.7153 5.16666 15 5.16666ZM8.75 10.8333V8.75H21.25V10.8333H8.75ZM8.75 16.0417V13.9583H21.25V15.3333C21.1528 15.3958 21.0538 15.4705 20.9531 15.5573C20.8524 15.6441 20.7535 15.7361 20.6562 15.8333L20.4479 16.0417H8.75ZM8.75 21.25V19.1667H17.3229L15.9375 20.5521C15.8125 20.6771 15.7031 20.7934 15.6094 20.901C15.5156 21.0087 15.4236 21.125 15.3333 21.25H8.75Z" fill="#585858"/>
</g>
</svg>
